<?xml version="1.0" encoding="UTF-8"?>
<svg version="1.1" xmlns="http://www.w3.org/2000/svg" width="249" height="256">
<path d="M0 0 C82.17 0 164.34 0 249 0 C249 84.48 249 168.96 249 256 C166.83 256 84.66 256 0 256 C0 171.52 0 87.04 0 0 Z " fill="#0D0B0C" transform="translate(0,0)"/>
<path d="M0 0 C3.75161872 0.52306223 7.10472103 0.28557445 10.875 -0.046875 C18.78811775 -0.74183943 18.78811775 -0.74183943 22.25 0.453125 C22.25 1.113125 22.25 1.773125 22.25 2.453125 C23.23484375 2.56914062 24.2196875 2.68515625 25.234375 2.8046875 C29.45860591 3.41088378 33.43457333 4.55388679 37.5 5.828125 C38.55960938 6.14136719 38.55960938 6.14136719 39.640625 6.4609375 C46.19471589 8.49667785 46.19471589 8.49667785 48.25 11.453125 C48.25 12.113125 48.25 12.773125 48.25 13.453125 C49.9 14.113125 51.55 14.773125 53.25 15.453125 C53.25 14.793125 53.25 14.133125 53.25 13.453125 C51.93 12.793125 50.61 12.133125 49.25 11.453125 C49.25 11.123125 49.25 10.793125 49.25 10.453125 C51.50056722 10.56745863 53.75046674 10.69498936 56 10.828125 C57.25296875 10.89773437 58.5059375 10.96734375 59.796875 11.0390625 C62.85998121 11.40635804 64.66974266 11.85023786 67.25 13.453125 C64.61 13.453125 61.97 13.453125 59.25 13.453125 C63.32152655 18.16493193 67.52071144 20.26936657 73.25 22.578125 C74.08635986 22.92359375 74.92271973 23.2690625 75.78442383 23.625 C82.49094956 26.31917881 89.11494771 28.22338529 96.25 29.453125 C96.25 29.783125 96.25 30.113125 96.25 30.453125 C78.20899772 31.191166 78.20899772 31.191166 71.25 26.453125 C71.84167969 27.16597656 72.43335938 27.87882812 73.04296875 28.61328125 C75.46267185 31.54613509 77.85861181 34.4971595 80.25 37.453125 C80.75660156 38.05769531 81.26320312 38.66226563 81.78515625 39.28515625 C87.59209449 46.66052797 90.28792338 56.39738677 92.25 65.453125 C92.62475056 67.11984777 92.99975368 68.78651377 93.375 70.453125 C93.66774108 71.78622285 93.9598066 73.11947024 94.25 74.453125 C87.53163779 72.58144051 83.54649047 68.89072513 78.25 64.453125 C78.25 70.723125 78.25 76.993125 78.25 83.453125 C77.92 83.453125 77.59 83.453125 77.25 83.453125 C77.09144531 82.86144531 76.93289062 82.26976563 76.76953125 81.66015625 C74.78452454 74.93745398 72.16703059 71.39781206 66.25 67.453125 C66.25 70.423125 66.25 73.393125 66.25 76.453125 C62.91666667 74.453125 59.58333333 72.453125 56.25 70.453125 C56.91 71.525625 57.57 72.598125 58.25 73.703125 C60.13295807 76.76293186 60.25 77.5867114 60.25 81.453125 C59.57710937 81.15148437 58.90421875 80.84984375 58.2109375 80.5390625 C54.78758894 79.28353361 51.46722222 78.69747366 47.875 78.078125 C42.30194469 77.05764927 37.90244085 75.74387585 33.25 72.453125 C33.6109375 73.00742188 33.971875 73.56171875 34.34375 74.1328125 C35.03984375 75.21949219 35.03984375 75.21949219 35.75 76.328125 C36.44609375 77.40707031 36.44609375 77.40707031 37.15625 78.5078125 C38.25 80.453125 38.25 80.453125 38.25 82.453125 C30.63445882 83.18538858 25.08923859 80.64476967 18.25 77.453125 C18.70052734 78.37544922 18.70052734 78.37544922 19.16015625 79.31640625 C19.54042969 80.12464844 19.92070313 80.93289062 20.3125 81.765625 C20.69535156 82.56613281 21.07820313 83.36664063 21.47265625 84.19140625 C22.25 86.453125 22.25 86.453125 21.25 89.453125 C20.09371094 88.69515625 20.09371094 88.69515625 18.9140625 87.921875 C17.91117187 87.2721875 16.90828125 86.6225 15.875 85.953125 C14.87726563 85.3034375 13.87953125 84.65375 12.8515625 83.984375 C10.46585803 82.2840429 10.46585803 82.2840429 8.25 82.453125 C9.24 85.918125 9.24 85.918125 10.25 89.453125 C9.69828125 89.16695313 9.1465625 88.88078125 8.578125 88.5859375 C6.09094711 87.37573349 3.57252247 86.3435944 1 85.328125 C0.10796875 84.97492188 -0.7840625 84.62171875 -1.703125 84.2578125 C-2.37859375 83.99226563 -3.0540625 83.72671875 -3.75 83.453125 C-3.75 85.103125 -3.75 86.753125 -3.75 88.453125 C-6.75 87.453125 -6.75 87.453125 -10.75 83.453125 C-11.08 89.063125 -11.41 94.673125 -11.75 100.453125 C-13.75 99.453125 -15.75 98.453125 -17.75 97.453125 C-17.75 103.723125 -17.75 109.993125 -17.75 116.453125 C-24.5 110.828125 -24.5 110.828125 -26.75 108.453125 C-26.255 109.071875 -25.76 109.690625 -25.25 110.328125 C-23.75 112.453125 -23.75 112.453125 -23.75 114.453125 C-26.78036227 114.0202161 -28.70002015 113.48481954 -31.3125 111.828125 C-33.60111479 110.27399748 -33.60111479 110.27399748 -35.9375 110.453125 C-37.92312232 111.35224769 -37.92312232 111.35224769 -39 113.515625 C-39.9649936 117.29518326 -39.88209826 120.55622627 -39.75 124.453125 C-41.235 124.948125 -41.235 124.948125 -42.75 125.453125 C-43.2407753 117.92790366 -41.26571411 111.10241037 -37.75 104.453125 C-41.13499169 107.12339703 -42.12740665 110.69451301 -43.4375 114.640625 C-43.66244141 115.29482422 -43.88738281 115.94902344 -44.11914062 116.62304688 C-44.67057309 118.23041384 -45.21134891 119.84142983 -45.75 121.453125 C-49.21070012 119.45373524 -51.72294608 117.9737976 -53.75 114.453125 C-53.75 113.133125 -53.75 111.813125 -53.75 110.453125 C-54.74 110.453125 -55.73 110.453125 -56.75 110.453125 C-57.08 111.443125 -57.41 112.433125 -57.75 113.453125 C-59.71263236 107.9115748 -59.76603857 104.24454483 -58.75 98.453125 C-61.49887049 99.82756025 -61.70847231 101.68388606 -62.67578125 104.46875 C-64.21095926 107.30464246 -66.42280491 109.25121122 -68.75 111.453125 C-68.68941406 110.40898438 -68.62882812 109.36484375 -68.56640625 108.2890625 C-68.07181756 99.6581415 -67.60865528 91.02544248 -67.1875 82.390625 C-67.13940186 81.46668945 -67.09130371 80.54275391 -67.04174805 79.59082031 C-66.83476747 75.22694781 -66.72597593 70.92391428 -66.93359375 66.55859375 C-67.50082028 54.27479882 -67.50082028 54.27479882 -63.75 49.828125 C-61.83984375 48.09375 -61.83984375 48.09375 -59.75 46.453125 C-58.26813904 45.16455025 -56.78890864 43.87294327 -55.3125 42.578125 C-54.29349609 41.74667969 -54.29349609 41.74667969 -53.25390625 40.8984375 C-52.75761719 40.42148437 -52.26132812 39.94453125 -51.75 39.453125 C-51.75 38.793125 -51.75 38.133125 -51.75 37.453125 C-57.28300561 40.51393662 -62.51861831 43.90470719 -67.75 47.453125 C-68.74 48.113125 -69.73 48.773125 -70.75 49.453125 C-70.39198426 43.60553451 -68.95680049 39.6490552 -64.75 35.453125 C-59.813439 32.65884519 -55.30186564 31.94013076 -49.75 31.453125 C-50.24371094 31.04320313 -50.73742187 30.63328125 -51.24609375 30.2109375 C-51.88675781 29.67210938 -52.52742188 29.13328125 -53.1875 28.578125 C-53.82558594 28.04445313 -54.46367188 27.51078125 -55.12109375 26.9609375 C-57.54918365 24.71335309 -57.73867504 23.55127463 -58.125 20.203125 C-57.67113297 15.66445465 -56.04267345 13.40547045 -52.75 10.453125 C-50.80070183 8.97859735 -48.84697038 7.72106058 -46.75 6.453125 C-46.85699219 7.40574219 -46.96398437 8.35835937 -47.07421875 9.33984375 C-47.19410156 10.59410156 -47.31398438 11.84835938 -47.4375 13.140625 C-47.62892578 15.00267578 -47.62892578 15.00267578 -47.82421875 16.90234375 C-47.74249308 20.81227207 -47.14266772 22.41438224 -44.75 25.453125 C-43.76 26.113125 -42.77 26.773125 -41.75 27.453125 C-42.08 26.463125 -42.41 25.473125 -42.75 24.453125 C-41.76 24.783125 -40.77 25.113125 -39.75 25.453125 C-39.646875 24.36 -39.54375 23.266875 -39.4375 22.140625 C-38.75 18.453125 -38.75 18.453125 -37.5 16.640625 C-33.94882622 14.23089994 -29.68061679 12.71401916 -25.4375 12.140625 C-20.89833299 10.97944274 -17.64177406 8.85938409 -15.125 4.890625 C-14.67125 4.08625 -14.2175 3.281875 -13.75 2.453125 C-9.77914072 -1.65955068 -5.32244891 -1.05844154 0 0 Z " fill="#0F0D0E" transform="translate(100.75,17.546875)"/>
<path d="M0 0 C3.88093172 1.15602221 5.75516722 3.27307494 8.421875 6.24609375 C10.78430946 8.78510192 12.69920613 9.1191399 16.0625 9.3125 C20.08948321 9.3060465 21.98066552 8.43316339 25.0625 5.875 C27.72169052 3.67555165 28.77163935 2.90942391 32.25 2.1875 C36.6254204 3.00325635 40.12097207 4.63381233 44.1015625 6.5859375 C46.77424309 7.80079232 49.28750583 8.58784764 52.125 9.3125 C60.19793483 11.60260354 66.10352127 17.1584817 70.9375 23.875 C74.99403705 31.21540038 74.07712276 41.09451082 74.03515625 49.25390625 C74.0337413 50.30658188 74.03232635 51.35925751 74.03086853 52.4438324 C74.02531296 55.77508499 74.01276888 59.10626804 74 62.4375 C73.99497925 64.7089834 73.99041735 66.98046786 73.98632812 69.25195312 C73.97535812 74.7929921 73.95866483 80.33399108 73.9375 85.875 C74.5975 85.875 75.2575 85.875 75.9375 85.875 C75.9375 86.865 75.9375 87.855 75.9375 88.875 C36.9975 88.875 -1.9425 88.875 -42.0625 88.875 C-42.0625 32.875 -42.0625 32.875 -36.0625 22.875 C-32.54055615 20.09152824 -29.13376128 18.0119692 -25.22119141 15.86425781 C-23.14615073 14.7243688 -21.07294557 13.58119411 -19 12.4375 C-18.30036133 12.0559375 -17.60072266 11.674375 -16.87988281 11.28125 C-12.99102635 9.11688881 -9.68276904 6.90144587 -6.4375 3.8125 C-4.08718347 1.6164712 -3.18742608 0.91069316 0 0 Z " fill="#0D0B0C" transform="translate(95.0625,167.125)"/>
<path d="M0 0 C-1.3937282 4.43458973 -3.60582235 6.87378374 -7 10 C-6.01 10.04125 -5.02 10.0825 -4 10.125 C-0.62290731 10.58428461 1.15022109 11.70493661 3.75 13.875 C13.16378997 21.34172525 26.4884556 20.98602977 38 22 C38 22.99 38 23.98 38 25 C34.62902617 26.49821059 32.79557881 27 29 27 C29 27.66 29 28.32 29 29 C29.61746094 29.17015625 30.23492187 29.3403125 30.87109375 29.515625 C35.10164236 30.72619294 39.03547137 31.95458176 42.9375 34 C50.31011038 37.485234 59.0014798 37.92593625 67 39 C65.359375 42.84375 65.359375 42.84375 62.125 44.25 C56.08449028 45.69003713 48.89614562 45.96538187 43 44 C43.50789063 44.63164063 44.01578125 45.26328125 44.5390625 45.9140625 C51.6926558 55.21105454 56.70747002 65.09811108 58.56640625 76.75 C59.01948377 79.10110498 59.73892607 81.15369025 60.625 83.375 C62 87 62 87 62 91 C57.53817564 89.68925635 54.00381243 87.92933989 50.125 85.375 C48.67480469 84.42753906 48.67480469 84.42753906 47.1953125 83.4609375 C46.47085938 82.97882813 45.74640625 82.49671875 45 82 C45.05220703 83.21623047 45.05220703 83.21623047 45.10546875 84.45703125 C45.2862291 91.85099051 45.16900907 99.16641666 42 106 C40.515 106.495 40.515 106.495 39 107 C38.97421875 105.84242187 38.9484375 104.68484375 38.921875 103.4921875 C38.86556651 101.95308872 38.8082198 100.41402767 38.75 98.875 C38.73582031 98.11445312 38.72164063 97.35390625 38.70703125 96.5703125 C38.47502045 91.18766199 37.44462795 88.17894786 34 84 C33.67 84 33.34 84 33 84 C33 86.31 33 88.62 33 91 C29 91 29 91 26 89 C26 91.64 26 94.28 26 97 C24.02 96.34 22.04 95.68 20 95 C19.91258876 98.56234428 19.85947104 102.12441108 19.8125 105.6875 C19.78736328 106.69490234 19.76222656 107.70230469 19.73632812 108.74023438 C19.68338055 114.08793929 19.67634377 117.57979222 23 122 C23.65572068 125.99989615 23.81247756 128.34894118 22.02734375 131.9765625 C16.43653595 139.46079054 7.21540327 143.09340159 -1 147 C-2.14082031 147.55429688 -3.28164062 148.10859375 -4.45703125 148.6796875 C-14.66728431 153.31952008 -22.06434692 152.41979455 -32.5625 149 C-33.47580078 148.71382812 -34.38910156 148.42765625 -35.33007812 148.1328125 C-37.55725024 147.43317728 -39.78005196 146.72216334 -42 146 C-41.83701416 146.60682617 -41.67402832 147.21365234 -41.50610352 147.83886719 C-40.91324178 150.37046976 -40.90332692 152.65284585 -40.9375 155.25 C-40.94652344 156.14203125 -40.95554688 157.0340625 -40.96484375 157.953125 C-40.97644531 158.62859375 -40.98804688 159.3040625 -41 160 C-40.29875 160.20625 -39.5975 160.4125 -38.875 160.625 C-36.10619537 161.94921091 -35.10113579 162.84731553 -33.125 165.0625 C-30.89726688 167.35258698 -29.7874636 168.08421253 -26.6875 169.3125 C-21.77872794 168.89650237 -19.54422081 166.75576047 -15.91796875 163.56640625 C-14 162 -14 162 -12 162 C-12 159.03 -12 156.06 -12 153 C-10.68 153 -9.36 153 -8 153 C-7.67 153.99 -7.34 154.98 -7 156 C-6.67 155.34 -6.34 154.68 -6 154 C-4.35 154.66 -2.7 155.32 -1 156 C-1 155.01 -1 154.02 -1 153 C1.64 153.33 4.28 153.66 7 154 C6.67 153.443125 6.34 152.88625 6 152.3125 C4.8690399 149.69715478 4.84337026 147.8193354 5 145 C11.47058824 153.41176471 11.47058824 153.41176471 13 158 C10.36 158 7.72 158 5 158 C5 158.66 5 159.32 5 160 C1.53058454 159.54177532 -1.67395049 159.10868317 -5 158 C-5.66 159.65 -6.32 161.3 -7 163 C-6.30519531 163.11601562 -5.61039062 163.23203125 -4.89453125 163.3515625 C-0.47932273 164.34066454 3.59249025 166.0886141 7.7890625 167.7578125 C10.25215612 168.71068813 12.66350485 169.49795247 15.1875 170.25 C21.89471355 172.77054522 28.09513327 178.68677451 31.5 184.9375 C34.88886712 193.40365893 35.31613782 202.11324098 35.4140625 211.1328125 C35.43342865 212.25066132 35.4527948 213.36851013 35.4727478 214.52023315 C35.53204289 218.05508028 35.57872733 221.58996087 35.625 225.125 C35.66322591 227.53647174 35.70228025 229.9479305 35.7421875 232.359375 C35.83770268 238.23946724 35.92289342 244.11963908 36 250 C35.34 250 34.68 250 34 250 C34 249.01 34 248.02 34 247 C33.34 247 32.68 247 32 247 C31.99191315 246.42529968 31.98382629 245.85059937 31.97549438 245.25848389 C31.88876508 239.22257087 31.78924076 233.18696082 31.68261719 227.15136719 C31.64457055 224.90532561 31.60967748 222.65922813 31.578125 220.41308594 C31.53194157 217.1658137 31.47404045 213.91891839 31.4140625 210.671875 C31.40251129 209.68386902 31.39096008 208.69586304 31.37905884 207.67791748 C31.23688554 193.35053751 31.23688554 193.35053751 25 181 C20.58903602 176.83073267 16.4560623 173.26353597 10.5 171.6875 C6.54477427 170.56733388 3.00523744 169.11557456 -0.6875 167.3125 C-5.04802825 165.30371732 -8.14601212 163.99256855 -13 165 C-14.32665049 165.95310087 -15.61624874 166.95887175 -16.875 168 C-20.50683256 170.93771784 -23.07889324 171.97112424 -27.765625 171.6640625 C-31.31400957 170.60947268 -33.52260287 168.42888553 -36.078125 165.82421875 C-37.95088206 163.84199388 -37.95088206 163.84199388 -40.68359375 162.8125 C-43 161 -43 161 -43.49169922 159.1730957 C-43.71816237 156.875342 -43.79545466 154.62119594 -43.8125 152.3125 C-43.83763672 151.51521484 -43.86277344 150.71792969 -43.88867188 149.89648438 C-43.94750315 147.9315198 -43.97662404 145.96570609 -44 144 C-48.0100934 143.82135369 -48.0100934 143.82135369 -52 144 C-52.99 144.99 -52.99 144.99 -54 146 C-59.8658398 146.91989748 -64.81674433 145.89066182 -70 143 C-73.14850043 140.27129963 -75.4470776 137.86805901 -77 134 C-77.15627043 129.7732569 -76.64660603 126.06043388 -74.4375 122.4375 C-73.963125 121.963125 -73.48875 121.48875 -73 121 C-69.10766151 121.54060257 -67.07134898 122.62218144 -64 125 C-61.85266073 125.70514846 -61.85266073 125.70514846 -60 126 C-60.495 125.38125 -60.99 124.7625 -61.5 124.125 C-63 122 -63 122 -63 120 C-60 121 -60 121 -55 126 C-55 119.4 -55 112.8 -55 106 C-54.67 106.99 -54.34 107.98 -54 109 C-52.08333333 110.16666667 -52.08333333 110.16666667 -50 111 C-49.34 111.33 -48.68 111.66 -48 112 C-48.01160156 111.19175781 -48.02320312 110.38351563 -48.03515625 109.55078125 C-48.04417969 108.48214844 -48.05320312 107.41351563 -48.0625 106.3125 C-48.07410156 105.25675781 -48.08570312 104.20101562 -48.09765625 103.11328125 C-48.00865425 100.27589738 -47.64939838 97.7561081 -47 95 C-44.11562221 96.29299694 -42.12780579 97.65941363 -40 100 C-40 98.35 -40 96.7 -40 95 C-34.29370646 95.42797202 -30.58921384 97.84345952 -26 101 C-26.7734375 99.8553125 -26.7734375 99.8553125 -27.5625 98.6875 C-28.036875 97.800625 -28.51125 96.91375 -29 96 C-28.505 94.515 -28.505 94.515 -28 93 C-22.73829306 94.41167747 -19.27828642 96.74850232 -15 100 C-15.309375 99.113125 -15.61875 98.22625 -15.9375 97.3125 C-16.8290671 94.53290845 -17.49377007 91.86863625 -18 89 C-14.91980287 89.46669653 -12.54788858 90.2047297 -9.6875 91.5 C-5.6071784 93.15979184 -2.36022425 93.61752419 2 94 C1.6390625 93.44570312 1.278125 92.89140625 0.90625 92.3203125 C0.21015625 91.23363281 0.21015625 91.23363281 -0.5 90.125 C-1.19609375 89.04605469 -1.19609375 89.04605469 -1.90625 87.9453125 C-3 86 -3 86 -3 84 C2 86 2 86 4.30078125 87.01171875 C8.14580333 88.41951989 12.01758856 88.80843319 16.0625 89.33984375 C19.21002618 90.04720003 21.34031966 91.2056936 24 93 C23.525625 91.9275 23.05125 90.855 22.5625 89.75 C21.46233668 87.19160135 20.54832997 84.74164983 20 82 C23.87132028 82.57352893 26.08172796 84.48704352 29 87 C29.33 84.36 29.66 81.72 30 79 C34.44034642 80.35677252 36.378008 82.20263227 39 86 C39.66 87.32 40.32 88.64 41 90 C41.33 85.38 41.66 80.76 42 76 C45.7779398 77.8889699 48.70040656 79.98469263 52 82.5625 C53.93283088 83.9517222 55.84484357 84.99939166 58 86 C57.74605469 85.34515625 57.49210938 84.6903125 57.23046875 84.015625 C55.3494625 79.0277882 53.73676383 74.1407035 52.5625 68.9375 C49.93938857 58.1241417 44.33053989 49.03246514 36.2578125 41.33984375 C35 40 35 40 35 38 C35.763125 38.309375 36.52625 38.61875 37.3125 38.9375 C41.95078152 40.7712392 45.75564067 41.12236384 50.6875 41.0625 C51.38939453 41.05798828 52.09128906 41.05347656 52.81445312 41.04882812 C54.54300538 41.03706927 56.27151365 41.01913454 58 41 C57.175 40.86464844 56.35 40.72929688 55.5 40.58984375 C48.40610415 39.26765557 42.0371098 37.44867819 35.4375 34.5625 C34.43879883 34.13022095 34.43879883 34.13022095 33.41992188 33.68920898 C29.49553331 31.90879158 26.154342 29.94849243 23 27 C23 26.34 23 25.68 23 25 C24.32 24.67 25.64 24.34 27 24 C22.71 23.67 18.42 23.34 14 23 C14.99 23.66 15.98 24.32 17 25 C17 25.66 17 26.32 17 27 C12.33129392 25.48582505 12.33129392 25.48582505 10.66479492 23.04199219 C8.53757395 20.43280078 6.88887386 20.00122343 3.67578125 19.078125 C2.13374023 18.62373047 2.13374023 18.62373047 0.56054688 18.16015625 C-1.04723633 17.70962891 -1.04723633 17.70962891 -2.6875 17.25 C-3.77095703 16.93417969 -4.85441406 16.61835938 -5.97070312 16.29296875 C-8.64371388 15.51579382 -11.31984118 14.75208053 -14 14 C-14 13.34 -14 12.68 -14 12 C-14.61520508 12.03552979 -15.23041016 12.07105957 -15.86425781 12.10766602 C-18.65919192 12.26554658 -21.45454623 12.41411746 -24.25 12.5625 C-25.21808594 12.61857422 -26.18617187 12.67464844 -27.18359375 12.73242188 C-28.58544922 12.80493164 -28.58544922 12.80493164 -30.015625 12.87890625 C-31.30388184 12.94960327 -31.30388184 12.94960327 -32.61816406 13.02172852 C-34.94589649 13.00049356 -36.76884366 12.6178895 -39 12 C-43.05299666 11.63154576 -45.24382136 11.53598129 -48.75 13.6875 C-51.07246299 15.86964265 -51.07246299 15.86964265 -52.375 18.5 C-54.73141316 22.12525102 -57.07354233 23.17216626 -61 25 C-63.8125 25.125 -63.8125 25.125 -66 25 C-66.66 25.66 -67.32 26.32 -68 27 C-69.65816784 27.68753301 -71.32459336 28.35561283 -73 29 C-74.38645369 30.18180682 -74.38645369 30.18180682 -74.4375 33.5 C-74.623125 34.655 -74.80875 35.81 -75 37 C-75.99 37.495 -75.99 37.495 -77 38 C-76.65587045 28.98380567 -76.65587045 28.98380567 -74.375 25.5625 C-72 24 -72 24 -68.5 22.5625 C-64.72061911 20.87527639 -63.3929369 19.27920983 -61 16 C-60.34 16 -59.68 16 -59 16 C-59.33 17.65 -59.66 19.3 -60 21 C-59.49210937 20.55269531 -58.98421875 20.10539062 -58.4609375 19.64453125 C-57.029725 18.38753001 -55.5932312 17.13652416 -54.15234375 15.890625 C-52.86872602 14.76309146 -51.60312082 13.61364051 -50.37890625 12.421875 C-47.75508646 9.94737828 -46.24646901 9.02738545 -42.625 8.625 C-40.16003833 8.87999604 -37.70069902 9.19489515 -35.25 9.5625 C-21.15306978 11.37883524 -11.56044528 0 0 0 Z " fill="#121011" transform="translate(137,6)"/>
<path d="M0 0 C-1.3937282 4.43458973 -3.60582235 6.87378374 -7 10 C-6.01 10.04125 -5.02 10.0825 -4 10.125 C-0.62290731 10.58428461 1.15022109 11.70493661 3.75 13.875 C13.16378997 21.34172525 26.4884556 20.98602977 38 22 C38 22.99 38 23.98 38 25 C34.62902617 26.49821059 32.79557881 27 29 27 C29 27.66 29 28.32 29 29 C29.61746094 29.17015625 30.23492187 29.3403125 30.87109375 29.515625 C35.10164236 30.72619294 39.03547137 31.95458176 42.9375 34 C50.31011038 37.485234 59.0014798 37.92593625 67 39 C65.359375 42.84375 65.359375 42.84375 62.125 44.25 C56.08449028 45.69003713 48.89614562 45.96538187 43 44 C43.50789063 44.63164063 44.01578125 45.26328125 44.5390625 45.9140625 C51.6926558 55.21105454 56.70747002 65.09811108 58.56640625 76.75 C59.01948377 79.10110498 59.73892607 81.15369025 60.625 83.375 C62 87 62 87 62 91 C57.53817564 89.68925635 54.00381243 87.92933989 50.125 85.375 C48.67480469 84.42753906 48.67480469 84.42753906 47.1953125 83.4609375 C46.47085938 82.97882813 45.74640625 82.49671875 45 82 C45.05220703 83.21623047 45.05220703 83.21623047 45.10546875 84.45703125 C45.2862291 91.85099051 45.16900907 99.16641666 42 106 C40.515 106.495 40.515 106.495 39 107 C38.97421875 105.84242187 38.9484375 104.68484375 38.921875 103.4921875 C38.86556651 101.95308872 38.8082198 100.41402767 38.75 98.875 C38.73582031 98.11445312 38.72164063 97.35390625 38.70703125 96.5703125 C38.47502045 91.18766199 37.44462795 88.17894786 34 84 C33.67 84 33.34 84 33 84 C33 86.31 33 88.62 33 91 C29 91 29 91 26 89 C26 91.64 26 94.28 26 97 C24.02 96.34 22.04 95.68 20 95 C19.91258876 98.56234428 19.85947104 102.12441108 19.8125 105.6875 C19.78736328 106.69490234 19.76222656 107.70230469 19.73632812 108.74023438 C19.68338055 114.08793929 19.67634377 117.57979222 23 122 C23.65572068 125.99989615 23.81247756 128.34894118 22.02734375 131.9765625 C16.43653595 139.46079054 7.21540327 143.09340159 -1 147 C-2.14082031 147.55429688 -3.28164062 148.10859375 -4.45703125 148.6796875 C-14.66728431 153.31952008 -22.06434692 152.41979455 -32.5625 149 C-33.47580078 148.71382812 -34.38910156 148.42765625 -35.33007812 148.1328125 C-37.55725024 147.43317728 -39.78005196 146.72216334 -42 146 C-41.83701416 146.60682617 -41.67402832 147.21365234 -41.50610352 147.83886719 C-40.91324178 150.37046976 -40.90332692 152.65284585 -40.9375 155.25 C-40.94652344 156.14203125 -40.95554688 157.0340625 -40.96484375 157.953125 C-40.97644531 158.62859375 -40.98804688 159.3040625 -41 160 C-40.29875 160.20625 -39.5975 160.4125 -38.875 160.625 C-36.10619537 161.94921091 -35.10113579 162.84731553 -33.125 165.0625 C-30.89726688 167.35258698 -29.7874636 168.08421253 -26.6875 169.3125 C-21.77872794 168.89650237 -19.54422081 166.75576047 -15.91796875 163.56640625 C-14 162 -14 162 -12 162 C-12 159.03 -12 156.06 -12 153 C-10.68 153 -9.36 153 -8 153 C-7.67 153.99 -7.34 154.98 -7 156 C-6.67 155.34 -6.34 154.68 -6 154 C-4.35 154.66 -2.7 155.32 -1 156 C-1 155.01 -1 154.02 -1 153 C1.64 153.33 4.28 153.66 7 154 C6.67 153.443125 6.34 152.88625 6 152.3125 C4.8690399 149.69715478 4.84337026 147.8193354 5 145 C11.47058824 153.41176471 11.47058824 153.41176471 13 158 C10.36 158 7.72 158 5 158 C5 158.66 5 159.32 5 160 C1.53058454 159.54177532 -1.67395049 159.10868317 -5 158 C-5.66 159.65 -6.32 161.3 -7 163 C-6.30519531 163.11601562 -5.61039062 163.23203125 -4.89453125 163.3515625 C-0.47932273 164.34066454 3.59249025 166.0886141 7.7890625 167.7578125 C10.25215612 168.71068813 12.66350485 169.49795247 15.1875 170.25 C21.89471355 172.77054522 28.09513327 178.68677451 31.5 184.9375 C34.88886712 193.40365893 35.31613782 202.11324098 35.4140625 211.1328125 C35.43342865 212.25066132 35.4527948 213.36851013 35.4727478 214.52023315 C35.53204289 218.05508028 35.57872733 221.58996087 35.625 225.125 C35.66322591 227.53647174 35.70228025 229.9479305 35.7421875 232.359375 C35.83770268 238.23946724 35.92289342 244.11963908 36 250 C35.34 250 34.68 250 34 250 C34 249.01 34 248.02 34 247 C33.34 247 32.68 247 32 247 C31.99191315 246.42529968 31.98382629 245.85059937 31.97549438 245.25848389 C31.88876508 239.22257087 31.78924076 233.18696082 31.68261719 227.15136719 C31.64457055 224.90532561 31.60967748 222.65922813 31.578125 220.41308594 C31.53194157 217.1658137 31.47404045 213.91891839 31.4140625 210.671875 C31.40251129 209.68386902 31.39096008 208.69586304 31.37905884 207.67791748 C31.23688554 193.35053751 31.23688554 193.35053751 25 181 C20.58903602 176.83073267 16.4560623 173.26353597 10.5 171.6875 C6.54477427 170.56733388 3.00523744 169.11557456 -0.6875 167.3125 C-5.04802825 165.30371732 -8.14601212 163.99256855 -13 165 C-14.32665049 165.95310087 -15.61624874 166.95887175 -16.875 168 C-20.50683256 170.93771784 -23.07889324 171.97112424 -27.765625 171.6640625 C-31.31400957 170.60947268 -33.52260287 168.42888553 -36.078125 165.82421875 C-37.95088206 163.84199388 -37.95088206 163.84199388 -40.68359375 162.8125 C-43 161 -43 161 -43.49169922 159.1730957 C-43.71816237 156.875342 -43.79545466 154.62119594 -43.8125 152.3125 C-43.83763672 151.51521484 -43.86277344 150.71792969 -43.88867188 149.89648438 C-43.94750315 147.9315198 -43.97662404 145.96570609 -44 144 C-48.0100934 143.82135369 -48.0100934 143.82135369 -52 144 C-52.99 144.99 -52.99 144.99 -54 146 C-59.8658398 146.91989748 -64.81674433 145.89066182 -70 143 C-73.14850043 140.27129963 -75.4470776 137.86805901 -77 134 C-77.15627043 129.7732569 -76.64660603 126.06043388 -74.4375 122.4375 C-73.963125 121.963125 -73.48875 121.48875 -73 121 C-69.06946815 121.56549393 -66.46592463 122.71382558 -63.1875 124.9375 C-62.39730469 125.46214844 -61.60710937 125.98679687 -60.79296875 126.52734375 C-60.20128906 127.01332031 -59.60960938 127.49929687 -59 128 C-59 128.66 -59 129.32 -59 130 C-61.95149462 129.52776086 -64.05218507 128.41735451 -66.5625 126.875 C-67.696875 126.25625 -68.83125 125.6375 -70 125 C-71.485 125.495 -71.485 125.495 -73 126 C-73.31213966 130.52602509 -73.38613823 133.14727808 -71.5 137.3125 C-67.51221572 141.5993681 -63.34679057 142.73924549 -57.625 143.375 C-56.325625 143.189375 -56.325625 143.189375 -55 143 C-54.34 142.01 -53.68 141.02 -53 140 C-48.36699143 139.43822293 -45.05640985 140.52531312 -40.8125 142.3125 C-27.49632665 147.63896934 -17.2209906 150.38050559 -3.58984375 144.69140625 C0.53405661 142.74837159 4.56459208 140.68933053 8.5625 138.5 C9.24135254 138.13269775 9.92020508 137.76539551 10.61962891 137.38696289 C14.59455169 135.1293224 17.58962724 133.01317818 20 129 C20.34381988 126.39350149 20.34381988 126.39350149 19.875 123.8125 C19.76929688 122.95269531 19.66359375 122.09289062 19.5546875 121.20703125 C19.15328657 118.81100365 19.15328657 118.81100365 17 117 C16.74121094 115.1081543 16.74121094 115.1081543 16.734375 112.82421875 C16.73050781 111.58188477 16.73050781 111.58188477 16.7265625 110.31445312 C16.73429687 109.44755859 16.74203125 108.58066406 16.75 107.6875 C16.73839844 106.40456055 16.73839844 106.40456055 16.7265625 105.09570312 C16.74040608 100.62768923 16.89220316 97.05667248 19 93 C16.87528825 92.6648342 14.75022095 92.33192171 12.625 92 C11.44164062 91.814375 10.25828125 91.62875 9.0390625 91.4375 C6.18179992 90.95250335 6.18179992 90.95250335 4 91 C4.66 91.66 5.32 92.32 6 93 C6 93.99 6 94.98 6 96 C-1.43378943 96.33452052 -7.19877155 96.13902852 -14 93 C-13.71125 93.60328125 -13.4225 94.2065625 -13.125 94.828125 C-12.75375 95.62734375 -12.3825 96.4265625 -12 97.25 C-11.62875 98.03890625 -11.2575 98.8278125 -10.875 99.640625 C-10 102 -10 102 -10 106 C-13.83663072 104.65070536 -16.65172569 102.92248975 -19.8125 100.375 C-20.60269531 99.74335937 -21.39289063 99.11171875 -22.20703125 98.4609375 C-22.79871094 97.97882813 -23.39039063 97.49671875 -24 97 C-24 97.66 -24 98.32 -24 99 C-24 100.66666667 -24 102.33333333 -24 104 C-28.97209562 102.23570801 -33.43438061 99.6060834 -38 97 C-38 98.98 -38 100.96 -38 103 C-40.96175123 102.38722388 -42.38058783 101.74627478 -45 100 C-45.33 104.62 -45.66 109.24 -46 114 C-51 113 -51 113 -52 112 C-52 118.27 -52 124.54 -52 131 C-55.42457867 129.28771067 -57.14918235 128.12304686 -59.75 125.5 C-60.36359375 124.8915625 -60.9771875 124.283125 -61.609375 123.65625 C-63 122 -63 122 -63 120 C-60 121 -60 121 -55 126 C-55 119.4 -55 112.8 -55 106 C-54.67 106.99 -54.34 107.98 -54 109 C-52.08333333 110.16666667 -52.08333333 110.16666667 -50 111 C-49.34 111.33 -48.68 111.66 -48 112 C-48.01160156 111.19175781 -48.02320312 110.38351563 -48.03515625 109.55078125 C-48.04417969 108.48214844 -48.05320312 107.41351563 -48.0625 106.3125 C-48.07410156 105.25675781 -48.08570312 104.20101562 -48.09765625 103.11328125 C-48.00865425 100.27589738 -47.64939838 97.7561081 -47 95 C-44.11562221 96.29299694 -42.12780579 97.65941363 -40 100 C-40 98.35 -40 96.7 -40 95 C-34.29370646 95.42797202 -30.58921384 97.84345952 -26 101 C-26.7734375 99.8553125 -26.7734375 99.8553125 -27.5625 98.6875 C-28.036875 97.800625 -28.51125 96.91375 -29 96 C-28.505 94.515 -28.505 94.515 -28 93 C-22.73829306 94.41167747 -19.27828642 96.74850232 -15 100 C-15.309375 99.113125 -15.61875 98.22625 -15.9375 97.3125 C-16.8290671 94.53290845 -17.49377007 91.86863625 -18 89 C-14.91980287 89.46669653 -12.54788858 90.2047297 -9.6875 91.5 C-5.6071784 93.15979184 -2.36022425 93.61752419 2 94 C1.6390625 93.44570312 1.278125 92.89140625 0.90625 92.3203125 C0.21015625 91.23363281 0.21015625 91.23363281 -0.5 90.125 C-1.19609375 89.04605469 -1.19609375 89.04605469 -1.90625 87.9453125 C-3 86 -3 86 -3 84 C2 86 2 86 4.30078125 87.01171875 C8.14580333 88.41951989 12.01758856 88.80843319 16.0625 89.33984375 C19.21002618 90.04720003 21.34031966 91.2056936 24 93 C23.525625 91.9275 23.05125 90.855 22.5625 89.75 C21.46233668 87.19160135 20.54832997 84.74164983 20 82 C23.87132028 82.57352893 26.08172796 84.48704352 29 87 C29.33 84.36 29.66 81.72 30 79 C34.44034642 80.35677252 36.378008 82.20263227 39 86 C39.66 87.32 40.32 88.64 41 90 C41.33 85.38 41.66 80.76 42 76 C45.7779398 77.8889699 48.70040656 79.98469263 52 82.5625 C53.93283088 83.9517222 55.84484357 84.99939166 58 86 C57.74605469 85.34515625 57.49210938 84.6903125 57.23046875 84.015625 C55.3494625 79.0277882 53.73676383 74.1407035 52.5625 68.9375 C49.93938857 58.1241417 44.33053989 49.03246514 36.2578125 41.33984375 C35 40 35 40 35 38 C35.763125 38.309375 36.52625 38.61875 37.3125 38.9375 C41.95078152 40.7712392 45.75564067 41.12236384 50.6875 41.0625 C51.38939453 41.05798828 52.09128906 41.05347656 52.81445312 41.04882812 C54.54300538 41.03706927 56.27151365 41.01913454 58 41 C57.175 40.86464844 56.35 40.72929688 55.5 40.58984375 C48.40610415 39.26765557 42.0371098 37.44867819 35.4375 34.5625 C34.43879883 34.13022095 34.43879883 34.13022095 33.41992188 33.68920898 C29.49553331 31.90879158 26.154342 29.94849243 23 27 C23 26.34 23 25.68 23 25 C24.32 24.67 25.64 24.34 27 24 C22.71 23.67 18.42 23.34 14 23 C14.99 23.66 15.98 24.32 17 25 C17 25.66 17 26.32 17 27 C12.33129392 25.48582505 12.33129392 25.48582505 10.66479492 23.04199219 C8.53757395 20.43280078 6.88887386 20.00122343 3.67578125 19.078125 C2.13374023 18.62373047 2.13374023 18.62373047 0.56054688 18.16015625 C-1.04723633 17.70962891 -1.04723633 17.70962891 -2.6875 17.25 C-3.77095703 16.93417969 -4.85441406 16.61835938 -5.97070312 16.29296875 C-8.64371388 15.51579382 -11.31984118 14.75208053 -14 14 C-14 13.34 -14 12.68 -14 12 C-14.61520508 12.03552979 -15.23041016 12.07105957 -15.86425781 12.10766602 C-18.65919192 12.26554658 -21.45454623 12.41411746 -24.25 12.5625 C-25.21808594 12.61857422 -26.18617187 12.67464844 -27.18359375 12.73242188 C-28.58544922 12.80493164 -28.58544922 12.80493164 -30.015625 12.87890625 C-31.30388184 12.94960327 -31.30388184 12.94960327 -32.61816406 13.02172852 C-34.94589649 13.00049356 -36.76884366 12.6178895 -39 12 C-43.05299666 11.63154576 -45.24382136 11.53598129 -48.75 13.6875 C-51.07246299 15.86964265 -51.07246299 15.86964265 -52.375 18.5 C-54.73141316 22.12525102 -57.07354233 23.17216626 -61 25 C-63.8125 25.125 -63.8125 25.125 -66 25 C-66.66 25.66 -67.32 26.32 -68 27 C-69.65816784 27.68753301 -71.32459336 28.35561283 -73 29 C-74.38645369 30.18180682 -74.38645369 30.18180682 -74.4375 33.5 C-74.623125 34.655 -74.80875 35.81 -75 37 C-75.99 37.495 -75.99 37.495 -77 38 C-76.65587045 28.98380567 -76.65587045 28.98380567 -74.375 25.5625 C-72 24 -72 24 -68.5 22.5625 C-64.72061911 20.87527639 -63.3929369 19.27920983 -61 16 C-60.34 16 -59.68 16 -59 16 C-59.33 17.65 -59.66 19.3 -60 21 C-59.49210937 20.55269531 -58.98421875 20.10539062 -58.4609375 19.64453125 C-57.029725 18.38753001 -55.5932312 17.13652416 -54.15234375 15.890625 C-52.86872602 14.76309146 -51.60312082 13.61364051 -50.37890625 12.421875 C-47.75508646 9.94737828 -46.24646901 9.02738545 -42.625 8.625 C-40.16003833 8.87999604 -37.70069902 9.19489515 -35.25 9.5625 C-21.15306978 11.37883524 -11.56044528 0 0 0 Z " fill="#CECDCD" transform="translate(137,6)"/>
<path d="M0 0 C-1.3937282 4.43458973 -3.60582235 6.87378374 -7 10 C-6.01 10.04125 -5.02 10.0825 -4 10.125 C-0.62290731 10.58428461 1.15022109 11.70493661 3.75 13.875 C13.16378997 21.34172525 26.4884556 20.98602977 38 22 C38 22.99 38 23.98 38 25 C34.62902617 26.49821059 32.79557881 27 29 27 C29 27.66 29 28.32 29 29 C29.61746094 29.17015625 30.23492187 29.3403125 30.87109375 29.515625 C35.10164236 30.72619294 39.03547137 31.95458176 42.9375 34 C50.31011038 37.485234 59.0014798 37.92593625 67 39 C65.359375 42.84375 65.359375 42.84375 62.125 44.25 C56.08449028 45.69003713 48.89614562 45.96538187 43 44 C43.50789063 44.63164063 44.01578125 45.26328125 44.5390625 45.9140625 C51.6926558 55.21105454 56.70747002 65.09811108 58.56640625 76.75 C59.01948377 79.10110498 59.73892607 81.15369025 60.625 83.375 C62 87 62 87 62 91 C55.49776246 89.08984713 50.63618414 85.71163346 45 82 C45 86.29 45 90.58 45 95 C44.01 95 43.02 95 42 95 C42 88.73 42 82.46 42 76 C45.7779398 77.8889699 48.70040656 79.98469263 52 82.5625 C53.93283088 83.9517222 55.84484357 84.99939166 58 86 C57.74605469 85.34515625 57.49210938 84.6903125 57.23046875 84.015625 C55.3494625 79.0277882 53.73676383 74.1407035 52.5625 68.9375 C49.93938857 58.1241417 44.33053989 49.03246514 36.2578125 41.33984375 C35 40 35 40 35 38 C35.763125 38.309375 36.52625 38.61875 37.3125 38.9375 C41.95078152 40.7712392 45.75564067 41.12236384 50.6875 41.0625 C51.38939453 41.05798828 52.09128906 41.05347656 52.81445312 41.04882812 C54.54300538 41.03706927 56.27151365 41.01913454 58 41 C57.175 40.86464844 56.35 40.72929688 55.5 40.58984375 C48.40610415 39.26765557 42.0371098 37.44867819 35.4375 34.5625 C34.43879883 34.13022095 34.43879883 34.13022095 33.41992188 33.68920898 C29.49553331 31.90879158 26.154342 29.94849243 23 27 C23 26.34 23 25.68 23 25 C24.32 24.67 25.64 24.34 27 24 C22.71 23.67 18.42 23.34 14 23 C14.99 23.66 15.98 24.32 17 25 C17 25.66 17 26.32 17 27 C12.33129392 25.48582505 12.33129392 25.48582505 10.66479492 23.04199219 C8.53757395 20.43280078 6.88887386 20.00122343 3.67578125 19.078125 C2.13374023 18.62373047 2.13374023 18.62373047 0.56054688 18.16015625 C-1.04723633 17.70962891 -1.04723633 17.70962891 -2.6875 17.25 C-3.77095703 16.93417969 -4.85441406 16.61835938 -5.97070312 16.29296875 C-8.64371388 15.51579382 -11.31984118 14.75208053 -14 14 C-14 13.34 -14 12.68 -14 12 C-14.61520508 12.03552979 -15.23041016 12.07105957 -15.86425781 12.10766602 C-18.65919192 12.26554658 -21.45454623 12.41411746 -24.25 12.5625 C-25.21808594 12.61857422 -26.18617187 12.67464844 -27.18359375 12.73242188 C-28.58544922 12.80493164 -28.58544922 12.80493164 -30.015625 12.87890625 C-31.30388184 12.94960327 -31.30388184 12.94960327 -32.61816406 13.02172852 C-34.94589649 13.00049356 -36.76884366 12.6178895 -39 12 C-43.05299666 11.63154576 -45.24382136 11.53598129 -48.75 13.6875 C-51.07246299 15.86964265 -51.07246299 15.86964265 -52.375 18.5 C-54.73141316 22.12525102 -57.07354233 23.17216626 -61 25 C-63.8125 25.125 -63.8125 25.125 -66 25 C-66.66 25.66 -67.32 26.32 -68 27 C-69.65816784 27.68753301 -71.32459336 28.35561283 -73 29 C-74.38645369 30.18180682 -74.38645369 30.18180682 -74.4375 33.5 C-74.623125 34.655 -74.80875 35.81 -75 37 C-75.99 37.495 -75.99 37.495 -77 38 C-76.65587045 28.98380567 -76.65587045 28.98380567 -74.375 25.5625 C-72 24 -72 24 -68.5 22.5625 C-64.72061911 20.87527639 -63.3929369 19.27920983 -61 16 C-60.34 16 -59.68 16 -59 16 C-59.33 17.65 -59.66 19.3 -60 21 C-59.49210937 20.55269531 -58.98421875 20.10539062 -58.4609375 19.64453125 C-57.029725 18.38753001 -55.5932312 17.13652416 -54.15234375 15.890625 C-52.86872602 14.76309146 -51.60312082 13.61364051 -50.37890625 12.421875 C-47.75508646 9.94737828 -46.24646901 9.02738545 -42.625 8.625 C-40.16003833 8.87999604 -37.70069902 9.19489515 -35.25 9.5625 C-21.15306978 11.37883524 -11.56044528 0 0 0 Z " fill="#D1CFCF" transform="translate(137,6)"/>
<path d="M0 0 C0.66 0 1.32 0 2 0 C1.5623124 3.50150081 0.84172984 6.47499306 -0.5625 9.6875 C-2.49111061 14.61828278 -2.82692087 19.77904863 -2 25 C-0.53952859 27.1770343 -0.53952859 27.1770343 1 29 C1 29.66 1 30.32 1 31 C-1.6645814 29.98929671 -2.95195872 29.0600516 -4.75 26.8125 C-7.06643853 21.60051331 -6.06457199 16.45593143 -5 11 C-6.12894876 11.93274109 -7.25300876 12.87140122 -8.375 13.8125 C-9.00148438 14.33457031 -9.62796875 14.85664063 -10.2734375 15.39453125 C-12.9850909 17.91600081 -13.9509351 19.62850859 -14.4375 23.3125 C-13.85731828 28.2026031 -12.44519087 29.55480913 -9 33 C-8.01 33.66 -7.02 34.32 -6 35 C-7.67849217 36.67849217 -9.95582575 36.52535312 -12.25 36.875 C-19.12492757 38.06392017 -19.12492757 38.06392017 -24.1796875 42.609375 C-26.28752146 46.01098291 -27 47.94595594 -27 52 C-26.195625 51.278125 -25.39125 50.55625 -24.5625 49.8125 C-19.58965976 45.65468583 -13.77964279 42.86366916 -8 40 C-8.4848193 44.19226103 -10.68350184 45.79411502 -13.8125 48.4375 C-20.6051352 53.80790185 -20.6051352 53.80790185 -23.3203125 61.59765625 C-23.27111552 63.08654822 -23.20456957 64.574922 -23.125 66.0625 C-22.83116503 76.49772248 -23.38318424 86.83775698 -24 97.25 C-24.07229828 98.48908615 -24.07229828 98.48908615 -24.14605713 99.75320435 C-24.42332099 104.50260108 -24.70816531 109.25147707 -25 114 C-24.19074654 112.89691832 -23.38553869 111.79086795 -22.58203125 110.68359375 C-22.1331958 110.06798584 -21.68436035 109.45237793 -21.22192383 108.81811523 C-19.76852273 106.65558217 -18.82258178 104.46774533 -18 102 C-17.34 102 -16.68 102 -16 102 C-16.020625 103.216875 -16.04125 104.43375 -16.0625 105.6875 C-16.06824116 108.91977322 -15.78766315 111.84934741 -15 115 C-13.02 114.505 -13.02 114.505 -11 114 C-10.773125 114.721875 -10.54625 115.44375 -10.3125 116.1875 C-8.75168987 119.53209313 -6.6968713 121.51603959 -4 124 C-3.38125 122.2675 -3.38125 122.2675 -2.75 120.5 C-1.13007251 116.15952444 0.87048841 112.11216031 3 108 C3.66 108 4.32 108 5 108 C4.79503906 108.59167969 4.59007812 109.18335937 4.37890625 109.79296875 C4.10949219 110.58316406 3.84007812 111.37335938 3.5625 112.1875 C3.29566406 112.96480469 3.02882812 113.74210937 2.75390625 114.54296875 C1.24884023 119.44808027 0.77211515 124.19766837 0.4375 129.3125 C0.31181641 131.19388672 0.31181641 131.19388672 0.18359375 133.11328125 C0.12300781 134.06589844 0.06242187 135.01851562 0 136 C-0.99 136.33 -1.98 136.66 -3 137 C-3.07476562 136.41992188 -3.14953125 135.83984375 -3.2265625 135.2421875 C-4.28969996 128.92590026 -6.12464216 126.13345556 -11 122 C-11.99 124.64 -12.98 127.28 -14 130 C-14.99 130 -15.98 130 -17 130 C-17.33 123.73 -17.66 117.46 -18 111 C-20.58341734 113.58341734 -23.16344848 116.17105074 -25.6875 118.8125 C-28 121 -28 121 -30 121 C-29.51766481 117.10255937 -29.02822364 113.20792882 -28.5 109.31640625 C-27.19965351 99.55364863 -26.462606 89.8364644 -26 80 C-26.99 80 -27.98 80 -29 80 C-28.690625 79.13375 -28.38125 78.2675 -28.0625 77.375 C-26.6201618 72.47705985 -26.61521411 67.47641205 -26.44140625 62.40234375 C-25.78077926 57.31025432 -23.92589007 53.36504863 -20 50 C-21.12894876 50.93274109 -22.25300876 51.87140122 -23.375 52.8125 C-24.31472656 53.59560547 -24.31472656 53.59560547 -25.2734375 54.39453125 C-27.2221048 56.08225739 -27.2221048 56.08225739 -29 59 C-29.66 59 -30.32 59 -31 59 C-31.49896786 51.01651428 -29.20180987 44.18593606 -24 38 C-20.51453566 35.79159851 -16.90454351 34.3015145 -13 33 C-13.66 32.360625 -14.32 31.72125 -15 31.0625 C-17.27460113 27.57951702 -17.88325318 25.57838144 -17.71875 21.47265625 C-16.19631302 16.23514209 -11.84015241 12.67880147 -8 9 C-7.0405001 8.04283465 -6.08186011 7.0848043 -5.125 6.125 C-4.42375 5.42375 -3.7225 4.7225 -3 4 C-2.443125 3.236875 -1.88625 2.47375 -1.3125 1.6875 C-0.6628125 0.8521875 -0.6628125 0.8521875 0 0 Z " fill="#DAD9D8" transform="translate(58,14)"/>
<path d="M0 0 C1.485 0.99 1.485 0.99 3 2 C3.29296875 5.2578125 3.29296875 5.2578125 3.1875 9.125 C3.16042969 10.40632812 3.13335937 11.68765625 3.10546875 13.0078125 C3.07066406 13.99523437 3.03585938 14.98265625 3 16 C3.76570313 16.26683594 4.53140625 16.53367188 5.3203125 16.80859375 C7.9825801 17.992255 9.05507294 18.87104937 10.875 21.0625 C13.10273312 23.35258698 14.2125364 24.08421253 17.3125 25.3125 C22.22127206 24.89650237 24.45577919 22.75576047 28.08203125 19.56640625 C30 18 30 18 32 18 C32 15.03 32 12.06 32 9 C33.32 9 34.64 9 36 9 C36.495 10.485 36.495 10.485 37 12 C37.33 11.34 37.66 10.68 38 10 C40.475 10.99 40.475 10.99 43 12 C43 11.01 43 10.02 43 9 C45.64 9.33 48.28 9.66 51 10 C50.505 9.1646875 50.505 9.1646875 50 8.3125 C48.8690399 5.69715478 48.84337026 3.8193354 49 1 C55.47058824 9.41176471 55.47058824 9.41176471 57 14 C54.36 14 51.72 14 49 14 C49 14.66 49 15.32 49 16 C45.53058454 15.54177532 42.32604951 15.10868317 39 14 C38.34 15.65 37.68 17.3 37 19 C37.69480469 19.11601562 38.38960937 19.23203125 39.10546875 19.3515625 C43.52067727 20.34066454 47.59249025 22.0886141 51.7890625 23.7578125 C54.25215612 24.71068813 56.66350485 25.49795247 59.1875 26.25 C65.89471355 28.77054522 72.09513327 34.68677451 75.5 40.9375 C78.88886712 49.40365893 79.31613782 58.11324098 79.4140625 67.1328125 C79.43342865 68.25066132 79.4527948 69.36851013 79.4727478 70.52023315 C79.53204289 74.05508028 79.57872733 77.58996087 79.625 81.125 C79.66322591 83.53647174 79.70228025 85.9479305 79.7421875 88.359375 C79.83770268 94.23946724 79.92289342 100.11963908 80 106 C79.34 106 78.68 106 78 106 C78 105.01 78 104.02 78 103 C77.34 103 76.68 103 76 103 C75.99191315 102.42529968 75.98382629 101.85059937 75.97549438 101.25848389 C75.88876508 95.22257087 75.78924076 89.18696082 75.68261719 83.15136719 C75.64457055 80.90532561 75.60967748 78.65922813 75.578125 76.41308594 C75.53194157 73.1658137 75.47404045 69.91891839 75.4140625 66.671875 C75.40251129 65.68386902 75.39096008 64.69586304 75.37905884 63.67791748 C75.23688554 49.35053751 75.23688554 49.35053751 69 37 C64.58903602 32.83073267 60.4560623 29.26353597 54.5 27.6875 C50.54477427 26.56733388 47.00523744 25.11557456 43.3125 23.3125 C38.95197175 21.30371732 35.85398788 19.99256855 31 21 C29.67334951 21.95310087 28.38375126 22.95887175 27.125 24 C23.49316744 26.93771784 20.92110676 27.97112424 16.234375 27.6640625 C12.68599043 26.60947268 10.47739713 24.42888553 7.921875 21.82421875 C6.04911794 19.84199388 6.04911794 19.84199388 3.31640625 18.8125 C1 17 1 17 0.50830078 15.1730957 C0.28183763 12.875342 0.20454534 10.62119594 0.1875 8.3125 C0.16236328 7.51521484 0.13722656 6.71792969 0.11132812 5.89648438 C0.05249685 3.9315198 0.02337596 1.96570609 0 0 Z " fill="#C1BFBF" transform="translate(93,150)"/>
<path d="M0 0 C-1.3937282 4.43458973 -3.60582235 6.87378374 -7 10 C-6.01 10.04125 -5.02 10.0825 -4 10.125 C1.00837783 10.80703519 4.20441101 13.88926729 8 17 C8.99 17.66 9.98 18.32 11 19 C7.22696625 19.98950379 4.84538221 19.95757244 1.13671875 18.78515625 C-0.19262695 18.37426758 -0.19262695 18.37426758 -1.54882812 17.95507812 C-2.46083984 17.66052734 -3.37285156 17.36597656 -4.3125 17.0625 C-5.24384766 16.77181641 -6.17519531 16.48113281 -7.13476562 16.18164062 C-9.42663511 15.46469684 -11.71459418 14.73723793 -14 14 C-14 13.34 -14 12.68 -14 12 C-14.61520508 12.03552979 -15.23041016 12.07105957 -15.86425781 12.10766602 C-18.65919192 12.26554658 -21.45454623 12.41411746 -24.25 12.5625 C-25.21808594 12.61857422 -26.18617187 12.67464844 -27.18359375 12.73242188 C-28.58544922 12.80493164 -28.58544922 12.80493164 -30.015625 12.87890625 C-31.30388184 12.94960327 -31.30388184 12.94960327 -32.61816406 13.02172852 C-34.94589649 13.00049356 -36.76884366 12.6178895 -39 12 C-43.05299666 11.63154576 -45.24382136 11.53598129 -48.75 13.6875 C-51.07246299 15.86964265 -51.07246299 15.86964265 -52.375 18.5 C-54.73141316 22.12525102 -57.07354233 23.17216626 -61 25 C-63.8125 25.125 -63.8125 25.125 -66 25 C-66.66 25.66 -67.32 26.32 -68 27 C-69.65816784 27.68753301 -71.32459336 28.35561283 -73 29 C-74.38645369 30.18180682 -74.38645369 30.18180682 -74.4375 33.5 C-74.623125 34.655 -74.80875 35.81 -75 37 C-75.99 37.495 -75.99 37.495 -77 38 C-76.65587045 28.98380567 -76.65587045 28.98380567 -74.375 25.5625 C-72 24 -72 24 -68.5 22.5625 C-64.72061911 20.87527639 -63.3929369 19.27920983 -61 16 C-60.34 16 -59.68 16 -59 16 C-59.33 17.65 -59.66 19.3 -60 21 C-59.49210937 20.55269531 -58.98421875 20.10539062 -58.4609375 19.64453125 C-57.029725 18.38753001 -55.5932312 17.13652416 -54.15234375 15.890625 C-52.86872602 14.76309146 -51.60312082 13.61364051 -50.37890625 12.421875 C-47.75508646 9.94737828 -46.24646901 9.02738545 -42.625 8.625 C-40.16003833 8.87999604 -37.70069902 9.19489515 -35.25 9.5625 C-21.15306978 11.37883524 -11.56044528 0 0 0 Z " fill="#B3B2B1" transform="translate(137,6)"/>
<path d="M0 0 C0.66 0 1.32 0 2 0 C2 1.32 2 2.64 2 4 C3.65 3.34 5.3 2.68 7 2 C6.0625 10.03571429 6.0625 10.03571429 5 14 C5.47050781 13.566875 5.94101563 13.13375 6.42578125 12.6875 C7.04839844 12.130625 7.67101562 11.57375 8.3125 11 C8.92738281 10.443125 9.54226562 9.88625 10.17578125 9.3125 C12 8 12 8 15 8 C15.66 6.35 16.32 4.7 17 3 C18.60080151 7.00200378 17.29279692 10.04556236 16 14 C16.99 13.34 17.98 12.68 19 12 C15.63863308 19.36673405 8.91237413 22.74383478 2.125 26.5 C1.42125244 26.89018311 0.71750488 27.28036621 -0.00756836 27.68237305 C-1.38439902 28.44457291 -2.76126945 29.20670095 -4.13818359 29.96875 C-11.74727785 34.183386 -16.82829188 37.62077611 -20 46 C-20.69586112 50.38420921 -20.72182374 54.69610303 -20.70703125 59.12890625 C-20.72215256 60.35915024 -20.73727386 61.58939423 -20.75285339 62.85691833 C-20.79559778 66.75896729 -20.80455635 70.66024062 -20.8125 74.5625 C-20.83290647 77.21947037 -20.86102126 79.87629014 -20.88867188 82.53320312 C-20.95139379 89.02214289 -20.98643275 95.51078118 -21 102 C-21.33 102 -21.66 102 -22 102 C-22 90.12 -22 78.24 -22 66 C-23.98 66.495 -23.98 66.495 -26 67 C-26 66.34 -26 65.68 -26 65 C-25.34 65 -24.68 65 -24 65 C-24 64.01 -24 63.02 -24 62 C-23.34 62 -22.68 62 -22 62 C-22.14179687 60.96101563 -22.28359375 59.92203125 -22.4296875 58.8515625 C-23.33924013 50.89297697 -23.7123732 45.10812434 -19.03125 38.2109375 C-13.84388828 32.56469378 -8.27476516 28.77843866 -1.4375 25.375 C3.59416016 22.83025233 8.37263227 20.23111618 13 17 C12.34 15.68 11.68 14.36 11 13 C10.37351563 13.433125 9.74703125 13.86625 9.1015625 14.3125 C8.28429687 14.869375 7.46703125 15.42625 6.625 16 C5.81289062 16.556875 5.00078125 17.11375 4.1640625 17.6875 C2 19 2 19 0 19 C0.70333538 16.02277453 1.58248537 13.14743457 2.5625 10.25 C2.83191406 9.45078125 3.10132812 8.6515625 3.37890625 7.828125 C3.58386719 7.22484375 3.78882812 6.6215625 4 6 C3.38125 6.66 2.7625 7.32 2.125 8 C0 10 0 10 -2 10 C-1.34 6.7 -0.68 3.4 0 0 Z " fill="#C5C4C3" transform="translate(74,154)"/>
<path d="M0 0 C0.66 0 1.32 0 2 0 C1.5623124 3.50150081 0.84172984 6.47499306 -0.5625 9.6875 C-2.49111061 14.61828278 -2.82692087 19.77904863 -2 25 C-0.53952859 27.1770343 -0.53952859 27.1770343 1 29 C1 29.66 1 30.32 1 31 C-1.6645814 29.98929671 -2.95195872 29.0600516 -4.75 26.8125 C-7.06643853 21.60051331 -6.06457199 16.45593143 -5 11 C-6.12894876 11.93274109 -7.25300876 12.87140122 -8.375 13.8125 C-9.00148438 14.33457031 -9.62796875 14.85664063 -10.2734375 15.39453125 C-12.9850909 17.91600081 -13.9509351 19.62850859 -14.4375 23.3125 C-13.85731828 28.2026031 -12.44519087 29.55480913 -9 33 C-8.01 33.66 -7.02 34.32 -6 35 C-7.67849217 36.67849217 -9.95582575 36.52535312 -12.25 36.875 C-19.08540333 38.05325496 -19.08540333 38.05325496 -24.14453125 42.5390625 C-26.46666127 46.26431703 -27.56906574 49.58292389 -28 54 C-30 51 -30 51 -29.375 47.6875 C-27.28727683 42.08860605 -25.32822944 38.43726657 -19.9375 35.6875 C-17.63888878 34.64187455 -15.40162468 33.80054156 -13 33 C-13.66 32.360625 -14.32 31.72125 -15 31.0625 C-17.27460113 27.57951702 -17.88325318 25.57838144 -17.71875 21.47265625 C-16.19631302 16.23514209 -11.84015241 12.67880147 -8 9 C-7.0405001 8.04283465 -6.08186011 7.0848043 -5.125 6.125 C-4.42375 5.42375 -3.7225 4.7225 -3 4 C-2.443125 3.236875 -1.88625 2.47375 -1.3125 1.6875 C-0.6628125 0.8521875 -0.6628125 0.8521875 0 0 Z " fill="#D6D5D4" transform="translate(58,14)"/>
<path d="M0 0 C2.72869407 0.03287583 5.2966618 0.56397771 8 1 C8.90413673 4.83724172 9.10576898 8.37502274 9.0625 12.3125 C9.05347656 13.38113281 9.04445313 14.44976562 9.03515625 15.55078125 C9.02355469 16.35902344 9.01195313 17.16726562 9 18 C9.66 18.33 10.32 18.66 11 19 C10.1028125 18.690625 10.1028125 18.690625 9.1875 18.375 C6.71549154 17.69328085 6.71549154 17.69328085 4 20 C4.165 19.071875 4.33 18.14375 4.5 17.1875 C5.07748388 14.04378647 5.07748388 14.04378647 5 11 C4.67 11.66 4.34 12.32 4 13 C2.33720673 14.0064275 0.67016516 15.00585407 -1 16 C-1.556875 16.556875 -2.11375 17.11375 -2.6875 17.6875 C-3.120625 18.120625 -3.55375 18.55375 -4 19 C-4.66 19 -5.32 19 -6 19 C-5.44687265 14.97007218 -4.8441938 10.97977076 -4 7 C-5.65 7.66 -7.3 8.32 -9 9 C-9 7.68 -9 6.36 -9 5 C-10.32 5 -11.64 5 -13 5 C-13 4.01 -13 3.02 -13 2 C-12.22914062 2.02320313 -11.45828125 2.04640625 -10.6640625 2.0703125 C-9.15972656 2.09738281 -9.15972656 2.09738281 -7.625 2.125 C-6.62726563 2.14820313 -5.62953125 2.17140625 -4.6015625 2.1953125 C-1.83737827 2.27216848 -1.83737827 2.27216848 0 0 Z " fill="#201E1F" transform="translate(85,149)"/>
<path d="M0 0 C0.66 0 1.32 0 2 0 C1.979375 1.216875 1.95875 2.43375 1.9375 3.6875 C1.93175884 6.91977322 2.21233685 9.84934741 3 13 C4.32 12.67 5.64 12.34 7 12 C7.226875 12.721875 7.45375 13.44375 7.6875 14.1875 C9.24831013 17.53209313 11.3031287 19.51603959 14 22 C14.61875 20.2675 14.61875 20.2675 15.25 18.5 C16.86992749 14.15952444 18.87048841 10.11216031 21 6 C21.66 6 22.32 6 23 6 C22.79503906 6.59167969 22.59007813 7.18335937 22.37890625 7.79296875 C22.10949219 8.58316406 21.84007813 9.37335938 21.5625 10.1875 C21.29566406 10.96480469 21.02882813 11.74210937 20.75390625 12.54296875 C19.24884023 17.44808027 18.77211515 22.19766837 18.4375 27.3125 C18.35371094 28.56675781 18.26992188 29.82101563 18.18359375 31.11328125 C18.09271484 32.54220703 18.09271484 32.54220703 18 34 C16.515 34.495 16.515 34.495 15 35 C14.92523438 34.41992188 14.85046875 33.83984375 14.7734375 33.2421875 C13.71030004 26.92590026 11.87535784 24.13345556 7 20 C6.01 22.64 5.02 25.28 4 28 C3.01 28 2.02 28 1 28 C0.67 21.73 0.34 15.46 0 9 C-1.65 9.33 -3.3 9.66 -5 10 C-4.54625 9.278125 -4.0925 8.55625 -3.625 7.8125 C-2.14505642 5.25105919 -1.02782461 2.76722011 0 0 Z " fill="#E6E5E4" transform="translate(40,116)"/>
<path d="M0 0 C3.93053185 0.56549393 6.53407537 1.71382558 9.8125 3.9375 C10.60269531 4.46214844 11.39289063 4.98679688 12.20703125 5.52734375 C12.79871094 6.01332031 13.39039062 6.49929687 14 7 C14 7.66 14 8.32 14 9 C11.04850538 8.52776086 8.94781493 7.41735451 6.4375 5.875 C5.303125 5.25625 4.16875 4.6375 3 4 C2.01 4.33 1.02 4.66 0 5 C-0.31213966 9.52602509 -0.38613823 12.14727808 1.5 16.3125 C5.48778428 20.5993681 9.65320943 21.73924549 15.375 22.375 C16.674375 22.189375 16.674375 22.189375 18 22 C18.66 21.01 19.32 20.02 20 19 C24.65628823 18.43378469 28.03488043 19.54191021 32.3125 21.3125 C37.49814944 23.40578968 42.67800805 25.28613818 48 27 C48 27.33 48 27.66 48 28 C41.00064801 28.6999352 35.75568091 26.66818647 29.26953125 24.09375 C26.21562753 23.07213346 24.17482922 22.59398276 21 23 C20.34 23.66 19.68 24.32 19 25 C13.1341602 25.91989748 8.18325567 24.89066182 3 22 C-0.14850043 19.27129963 -2.4470776 16.86805901 -4 13 C-4.15627043 8.7732569 -3.64660603 5.06043388 -1.4375 1.4375 C-0.7259375 0.7259375 -0.7259375 0.7259375 0 0 Z " fill="#D9D8D7" transform="translate(64,127)"/>
<path d="M0 0 C10.01490616 0.85520547 20.005946 1.93327714 30 3 C30 3.99 30 4.98 30 6 C26.62902617 7.49821059 24.79557881 8 21 8 C21 8.66 21 9.32 21 10 C21.92619141 10.25523438 21.92619141 10.25523438 22.87109375 10.515625 C27.10164236 11.72619294 31.03547137 12.95458176 34.9375 15 C42.31011038 18.485234 51.0014798 18.92593625 59 20 C58.505 21.485 58.505 21.485 58 23 C57.34 23 56.68 23 56 23 C56 22.34 56 21.68 56 21 C55.28457031 21.04640625 54.56914062 21.0928125 53.83203125 21.140625 C40.65051061 21.61809276 28.07784143 17.04532175 17 10 C15.60546875 7.78125 15.60546875 7.78125 15 6 C16.32 5.67 17.64 5.34 19 5 C14.71 4.67 10.42 4.34 6 4 C6.99 4.66 7.98 5.32 9 6 C9 6.66 9 7.32 9 8 C4.12314139 6.64531705 2.51407619 4.28324091 0 0 Z " fill="#CECDCC" transform="translate(145,25)"/>
<path d="M0 0 C2.88437779 1.29299694 4.87219421 2.65941363 7 5 C7 3.35 7 1.7 7 0 C11.21912747 0.4794463 13.79663178 1.16625119 17 4 C16.34 4.33 15.68 4.66 15 5 C12.96855359 4.06553465 10.96466413 3.06775224 9 2 C9 3.98 9 5.96 9 8 C6.03824877 7.38722388 4.61941217 6.74627478 2 5 C1.67 9.62 1.34 14.24 1 19 C-4 18 -4 18 -5 17 C-5 23.27 -5 29.54 -5 36 C-8.42457867 34.28771067 -10.14918235 33.12304686 -12.75 30.5 C-13.36359375 29.8915625 -13.9771875 29.283125 -14.609375 28.65625 C-16 27 -16 27 -16 25 C-13 26 -13 26 -8 31 C-8 24.4 -8 17.8 -8 11 C-7.67 11.99 -7.34 12.98 -7 14 C-5.08333333 15.16666667 -5.08333333 15.16666667 -3 16 C-2.34 16.33 -1.68 16.66 -1 17 C-1.01160156 16.19175781 -1.02320312 15.38351563 -1.03515625 14.55078125 C-1.04417969 13.48214844 -1.05320312 12.41351563 -1.0625 11.3125 C-1.07410156 10.25675781 -1.08570312 9.20101562 -1.09765625 8.11328125 C-1.00865425 5.27589738 -0.64939838 2.7561081 0 0 Z " fill="#C4C3C2" transform="translate(90,101)"/>
<path d="M0 0 C0.33 0 0.66 0 1 0 C1.10957031 0.6290625 1.21914062 1.258125 1.33203125 1.90625 C2.13077003 6.21814064 2.99979901 10.29274159 4.625 14.375 C6 18 6 18 6 22 C-0.50223754 20.08984713 -5.36381586 16.71163346 -11 13 C-11 17.29 -11 21.58 -11 26 C-11.99 26 -12.98 26 -14 26 C-14 19.73 -14 13.46 -14 7 C-10.2220602 8.8889699 -7.29959344 10.98469263 -4 13.5625 C-2.06716912 14.9517222 -0.15515643 15.99939166 2 17 C1.69964844 16.25234375 1.39929688 15.5046875 1.08984375 14.734375 C0.51943359 13.25710937 0.51943359 13.25710937 -0.0625 11.75 C-0.44535156 10.77546875 -0.82820312 9.8009375 -1.22265625 8.796875 C-2.24518965 5.11781012 -1.66029865 3.32059731 0 0 Z " fill="#B6B4B4" transform="translate(193,75)"/>
<path d="M0 0 C0.66 0.33 1.32 0.66 2 1 C1.4740625 1.86625 1.4740625 1.86625 0.9375 2.75 C-0.18065988 5.43358372 0.07396879 6.30609104 1 9 C1.33333333 10.33333333 1.66666667 11.66666667 2 13 C-4.75 12.125 -4.75 12.125 -7 11 C-6.67 12.32 -6.34 13.64 -6 15 C-7.98 14.01 -9.96 13.02 -12 12 C-12.66 13.32 -13.32 14.64 -14 16 C-14.0825 15.21625 -14.165 14.4325 -14.25 13.625 C-14.71229528 10.84757889 -14.71229528 10.84757889 -17.046875 9.8359375 C-17.69140625 9.56007812 -18.3359375 9.28421875 -19 9 C-18.21496094 8.68546875 -17.42992188 8.3709375 -16.62109375 8.046875 C-9.57022639 5.20025687 -9.57022639 5.20025687 -2.875 1.625 C-1.92625 1.08875 -0.9775 0.5525 0 0 Z " fill="#222121" transform="translate(143,148)"/>
<path d="M0 0 C3.55780196 0.60990891 6.6828589 1.5783681 10 3 C10 3.99 10 4.98 10 6 C8.02 5.34 6.04 4.68 4 4 C4.28875 4.60328125 4.5775 5.2065625 4.875 5.828125 C5.24625 6.62734375 5.6175 7.4265625 6 8.25 C6.37125 9.03890625 6.7425 9.8278125 7.125 10.640625 C8 13 8 13 8 17 C4.16336928 15.65070536 1.34827431 13.92248975 -1.8125 11.375 C-2.60269531 10.74335937 -3.39289063 10.11171875 -4.20703125 9.4609375 C-4.79871094 8.97882813 -5.39039062 8.49671875 -6 8 C-6 8.66 -6 9.32 -6 10 C-6 11.66666667 -6 13.33333333 -6 15 C-9.65316671 13.75023244 -10.78065836 13.32901247 -13 10 C-10.525 10.99 -10.525 10.99 -8 12 C-8.515625 11.236875 -9.03125 10.47375 -9.5625 9.6875 C-10.036875 8.800625 -10.51125 7.91375 -11 7 C-10.67 6.01 -10.34 5.02 -10 4 C-4.73829306 5.41167747 -1.27828642 7.74850232 3 11 C2.690625 10.113125 2.38125 9.22625 2.0625 8.3125 C1.1709329 5.53290845 0.50622993 2.86863625 0 0 Z " fill="#D2D1D0" transform="translate(119,95)"/>
<path d="M0 0 C0.99 0 1.98 0 3 0 C5.30598416 3.65114159 5.26789474 6.8080257 5.25 11.0625 C5.25515625 12.29097656 5.2603125 13.51945312 5.265625 14.78515625 C5 18 5 18 3 21 C2.01 20.67 1.02 20.34 0 20 C-1.24674334 16.25976998 -1.14552755 12.7683914 -1.125 8.875 C-1.12886719 8.13378906 -1.13273438 7.39257812 -1.13671875 6.62890625 C-1.1266598 1.1266598 -1.1266598 1.1266598 0 0 Z " fill="#E4E3E2" transform="translate(138,104)"/>
<path d="M0 0 C0.66 0.33 1.32 0.66 2 1 C1.113125 1.639375 0.22625 2.27875 -0.6875 2.9375 C-5.41158419 6.95665665 -8.48736745 11.78381227 -9.47280884 17.96633911 C-9.67109595 21.36225316 -9.71838274 24.72725226 -9.70703125 28.12890625 C-9.72215256 29.35915024 -9.73727386 30.58939423 -9.75285339 31.85691833 C-9.79559778 35.75896729 -9.80455635 39.66024062 -9.8125 43.5625 C-9.83290647 46.21947037 -9.86102126 48.87629014 -9.88867188 51.53320312 C-9.95139379 58.02214289 -9.98643275 64.51078118 -10 71 C-10.33 71 -10.66 71 -11 71 C-11 59.12 -11 47.24 -11 35 C-12.98 35.495 -12.98 35.495 -15 36 C-15 35.34 -15 34.68 -15 34 C-14.34 34 -13.68 34 -13 34 C-13 33.01 -13 32.02 -13 31 C-12.34 31 -11.68 31 -11 31 C-11.14179687 29.96101563 -11.28359375 28.92203125 -11.4296875 27.8515625 C-12.35308795 19.76234155 -12.74429914 13.90484635 -7.76953125 6.99609375 C-5.36272367 4.2811298 -2.95363047 2.10973605 0 0 Z " fill="#D9D8D7" transform="translate(63,185)"/>
<path d="M0 0 C0.99 0 1.98 0 3 0 C4.90034016 4.01099464 5.24338153 7.20527883 5.1875 11.625 C5.18105469 12.75164062 5.17460938 13.87828125 5.16796875 15.0390625 C5 18 5 18 4 21 C3.01 21 2.02 21 1 21 C-1.43818586 14.4473755 -1.43249199 7.93998781 -1 1 C-0.67 0.67 -0.34 0.34 0 0 Z " fill="#E0DFDE" transform="translate(97,111)"/>
<path d="M0 0 C10.01490616 0.85520547 20.005946 1.93327714 30 3 C30 3.99 30 4.98 30 6 C25.58774263 7.47075246 22.51718381 8.36884358 18 7 C18.33 6.34 18.66 5.68 19 5 C14.71 4.67 10.42 4.34 6 4 C6.99 4.66 7.98 5.32 9 6 C9 6.66 9 7.32 9 8 C4.12314139 6.64531705 2.51407619 4.28324091 0 0 Z " fill="#D4D3D2" transform="translate(145,25)"/>
<path d="M0 0 C1.485 0.99 1.485 0.99 3 2 C3.29296875 5.2578125 3.29296875 5.2578125 3.1875 9.125 C3.16042969 10.40632812 3.13335937 11.68765625 3.10546875 13.0078125 C3.07066406 13.99523437 3.03585938 14.98265625 3 16 C3.76570313 16.26683594 4.53140625 16.53367188 5.3203125 16.80859375 C7.9825801 17.992255 9.05507294 18.87104937 10.875 21.0625 C13.25435214 23.56418387 14.03689719 24.01035711 17.5625 25 C20.97340437 25 22.99387601 24.54860933 26 23 C26 23.66 26 24.32 26 25 C22.47206611 27.35195593 20.55269434 27.59079584 16.41015625 27.5234375 C12.65439294 26.70776119 10.56008277 24.51316128 7.921875 21.82421875 C6.04911794 19.84199388 6.04911794 19.84199388 3.31640625 18.8125 C1 17 1 17 0.50830078 15.1730957 C0.28183763 12.875342 0.20454534 10.62119594 0.1875 8.3125 C0.16236328 7.51521484 0.13722656 6.71792969 0.11132812 5.89648438 C0.05249685 3.9315198 0.02337596 1.96570609 0 0 Z " fill="#B4B3B3" transform="translate(93,150)"/>
<path d="M0 0 C0.66 0 1.32 0 2 0 C1.67 1.65 1.34 3.3 1 5 C1.99 5.33 2.98 5.66 4 6 C0.85156513 8.79860877 -0.86533068 9.10880709 -5 9 C-5.66 9.66 -6.32 10.32 -7 11 C-8.65816784 11.68753301 -10.32459336 12.35561283 -12 13 C-13.38645369 14.18180682 -13.38645369 14.18180682 -13.4375 17.5 C-13.623125 18.655 -13.80875 19.81 -14 21 C-14.66 21.33 -15.32 21.66 -16 22 C-15.65587045 12.98380567 -15.65587045 12.98380567 -13.375 9.5625 C-11 8 -11 8 -7.5 6.5625 C-3.72061911 4.87527639 -2.3929369 3.27920983 0 0 Z " fill="#CBCAC9" transform="translate(76,22)"/>
<path d="M0 0 C3.93604187 0.44186999 6.55853042 1.73041284 9.8125 3.9375 C10.60269531 4.46214844 11.39289063 4.98679688 12.20703125 5.52734375 C12.79871094 6.01332031 13.39039062 6.49929687 14 7 C14 7.66 14 8.32 14 9 C11.04850538 8.52776086 8.94781493 7.41735451 6.4375 5.875 C5.303125 5.25625 4.16875 4.6375 3 4 C2.01 4.33 1.02 4.66 0 5 C0 8.3 0 11.6 0 15 C-0.99 15.33 -1.98 15.66 -3 16 C-4.09384143 10.0695344 -4.43716124 6.28794036 -1 1 C-0.67 0.67 -0.34 0.34 0 0 Z " fill="#D4D3D2" transform="translate(64,127)"/>
<path d="M0 0 C0.66 0 1.32 0 2 0 C1.979375 1.216875 1.95875 2.43375 1.9375 3.6875 C1.93175884 6.91977322 2.21233685 9.84934741 3 13 C3.66 12.67 4.32 12.34 5 12 C5 13.65 5 15.3 5 17 C4.34 17 3.68 17 3 17 C2.67 20.3 2.34 23.6 2 27 C2.66 27.33 3.32 27.66 4 28 C3.01 28 2.02 28 1 28 C0.67 21.73 0.34 15.46 0 9 C-1.65 9.33 -3.3 9.66 -5 10 C-4.54625 9.278125 -4.0925 8.55625 -3.625 7.8125 C-2.14505642 5.25105919 -1.02782461 2.76722011 0 0 Z " fill="#A7A5A5" transform="translate(40,116)"/>
<path d="M0 0 C0.66 0 1.32 0 2 0 C0.37790305 4.49196078 -1.02036169 7.9580851 -5.375 10.25 C-8.05649773 11.01614221 -10.22722332 11.15844438 -13 11 C-13 10.34 -13 9.68 -13 9 C-13.66 8.67 -14.32 8.34 -15 8 C-14.00097656 7.50628906 -13.00195312 7.01257813 -11.97265625 6.50390625 C-10.6692186 5.85687605 -9.36583602 5.20973489 -8.0625 4.5625 C-7.40314453 4.23701172 -6.74378906 3.91152344 -6.06445312 3.57617188 C-2.81709965 2.10888654 -2.81709965 2.10888654 0 0 Z " fill="#C2C1C0" transform="translate(135,6)"/>
<path d="M0 0 C0.33 0 0.66 0 1 0 C2.14806378 11.52164009 2.14806378 11.52164009 2 17 C3.32 16.34 4.64 15.68 6 15 C4.44396229 18.81936528 2.04395069 21.26044438 -1 24 C-1.66 24 -2.32 24 -3 24 C-2 16 -1 8 0 0 Z " fill="#D5D4D3" transform="translate(31,111)"/>
<path d="M0 0 C0.33 1.32 0.66 2.64 1 4 C1.66 4 2.32 4 3 4 C2.86015045 7.37527556 2.71204731 10.75014131 2.5625 14.125 C2.52318359 15.07632813 2.48386719 16.02765625 2.44335938 17.0078125 C2.22946977 21.74628987 1.93438179 26.33594301 1 31 C0.67 31 0.34 31 0 31 C0 23.41 0 15.82 0 8 C-0.99 8 -1.98 8 -3 8 C-1.125 1.125 -1.125 1.125 0 0 Z " fill="#E3E2E1" transform="translate(32,86)"/>
<path d="M0 0 C1.98 0 3.96 0 6 0 C6.33 0.99 6.66 1.98 7 3 C1.68468311 4.77410051 -2.85618805 5.2577668 -8.4375 5.125 C-9.16904297 5.11597656 -9.90058594 5.10695313 -10.65429688 5.09765625 C-12.43634298 5.07436153 -14.21821759 5.0385019 -16 5 C-16 4.34 -16 3.68 -16 3 C-12.68455701 1.89485234 -9.79589889 1.67892369 -6.3125 1.4375 C-4.54326172 1.31181641 -4.54326172 1.31181641 -2.73828125 1.18359375 C-1.83464844 1.12300781 -0.93101562 1.06242187 0 1 C0 0.67 0 0.34 0 0 Z " fill="#BCBBBA" transform="translate(195,46)"/>
<path d="M0 0 C3.13782964 1.56891482 5.50839252 3.02310093 8.25 5.125 C8.95640625 5.66382812 9.6628125 6.20265625 10.390625 6.7578125 C10.92171875 7.16773437 11.4528125 7.57765625 12 8 C10.3125 8.6875 10.3125 8.6875 8 9 C6.35 8.01 4.7 7.02 3 6 C3 10.29 3 14.58 3 19 C2.01 19 1.02 19 0 19 C0 12.73 0 6.46 0 0 Z " fill="#AFAEAE" transform="translate(179,82)"/>
<path d="M0 0 C0 0.33 0 0.66 0 1 C-0.73605469 1.10957031 -1.47210938 1.21914063 -2.23046875 1.33203125 C-10.70314443 2.42949018 -10.70314443 2.42949018 -17.14453125 7.5390625 C-19.46666127 11.26431703 -20.56906574 14.58292389 -21 19 C-23 16 -23 16 -22.375 12.6875 C-20.00778019 6.33904688 -17.4218224 2.44303737 -11.23828125 -0.38671875 C-7.39947414 -1.4385385 -3.83951909 -0.81767536 0 0 Z " fill="#CBC9C9" transform="translate(51,49)"/>
<path d="M0 0 C0.99 0.33 1.98 0.66 3 1 C2.175 1.845625 1.35 2.69125 0.5 3.5625 C-1.59770389 6.10971187 -2.01552614 7.08694638 -2.625 10.5 C-1.79586247 15.14317017 -0.31641633 16.68358367 3 20 C3.99 20.66 4.98 21.32 6 22 C3.3125 22.4375 3.3125 22.4375 0 22 C-3.03705115 19.50443859 -4.66400689 16.56616144 -5.484375 12.7421875 C-5.74605066 8.45361422 -5.26513517 5.78726375 -2.5 2.4375 C-1.675 1.633125 -0.85 0.82875 0 0 Z " fill="#CDCCCB" transform="translate(46,27)"/>
<path d="M0 0 C0.99 0.33 1.98 0.66 3 1 C3 2.98 3 4.96 3 7 C3.66 7 4.32 7 5 7 C5 7.99 5 8.98 5 10 C5.66 10.33 6.32 10.66 7 11 C6.31292969 11.12117187 5.62585938 11.24234375 4.91796875 11.3671875 C4.01691406 11.53476563 3.11585938 11.70234375 2.1875 11.875 C1.29417969 12.03742188 0.40085937 12.19984375 -0.51953125 12.3671875 C-3.22727846 12.91188449 -3.22727846 12.91188449 -6 15 C-6 14.01 -6 13.02 -6 12 C-2.66666667 9 -2.66666667 9 0 9 C0 6.03 0 3.06 0 0 Z " fill="#B7B6B5" transform="translate(125,159)"/>
<path d="M0 0 C0.66 0 1.32 0 2 0 C2 1.32 2 2.64 2 4 C3.65 3.34 5.3 2.68 7 2 C6.67 6.29 6.34 10.58 6 15 C5.34 15 4.68 15 4 15 C3.40267181 12.23735711 3 9.83967231 3 7 C2.54625 7.495 2.0925 7.99 1.625 8.5 C0 10 0 10 -2 10 C-1.34 6.7 -0.68 3.4 0 0 Z " fill="#B8B7B6" transform="translate(74,154)"/>
<path d="M0 0 C-2.1235547 2.1235547 -3.04257145 2.47275975 -5.8515625 3.25390625 C-7.00591797 3.57584961 -7.00591797 3.57584961 -8.18359375 3.90429688 C-9.39208984 4.23010742 -9.39208984 4.23010742 -10.625 4.5625 C-11.40746094 4.78357422 -12.18992188 5.00464844 -12.99609375 5.23242188 C-17.99544719 6.60454956 -22.84231292 7.4747893 -28 8 C-28 7.34 -28 6.68 -28 6 C-24.28497813 5.00352278 -20.56928586 4.00979021 -16.8515625 3.0234375 C-14.69888645 2.45142825 -12.54703227 1.87621603 -10.3984375 1.2890625 C-6.85345359 0.34464594 -3.67472365 -0.22967023 0 0 Z " fill="#C7C6C5" transform="translate(145,130)"/>
<path d="M0 0 C0.33 0 0.66 0 1 0 C1.08797281 3.18732254 1.14071341 6.37432788 1.1875 9.5625 C1.22520508 10.90538086 1.22520508 10.90538086 1.26367188 12.27539062 C1.32655603 17.99784892 0.65798531 21.91424859 -2 27 C-2.66 27 -3.32 27 -4 27 C-3.67 22.71 -3.34 18.42 -3 14 C-2.01 14.33 -1.02 14.66 0 15 C0 10.05 0 5.1 0 0 Z " fill="#E4E3E2" transform="translate(180,86)"/>
<path d="M0 0 C0.66 0 1.32 0 2 0 C1.79503906 0.59167969 1.59007812 1.18335937 1.37890625 1.79296875 C1.10949219 2.58316406 0.84007812 3.37335938 0.5625 4.1875 C0.29566406 4.96480469 0.02882813 5.74210937 -0.24609375 6.54296875 C-1.75115977 11.44808027 -2.22788485 16.19766837 -2.5625 21.3125 C-2.64628906 22.56675781 -2.73007812 23.82101563 -2.81640625 25.11328125 C-2.87699219 26.06589844 -2.93757813 27.01851562 -3 28 C-3.33 28 -3.66 28 -4 28 C-5.98992905 9.35523003 -5.98992905 9.35523003 -1 1 C-0.67 0.67 -0.34 0.34 0 0 Z " fill="#C2C1C0" transform="translate(61,122)"/>
<path d="M0 0 C0.33 0 0.66 0 1 0 C1.33 6.6 1.66 13.2 2 20 C-1.42457867 18.28771067 -3.14918235 17.12304686 -5.75 14.5 C-6.67039062 13.58734375 -6.67039062 13.58734375 -7.609375 12.65625 C-9 11 -9 11 -9 9 C-6 10 -6 10 -1 15 C-0.67 10.05 -0.34 5.1 0 0 Z " fill="#B1AFAF" transform="translate(83,117)"/>
<path d="M0 0 C0.33 0 0.66 0 1 0 C1.12375 1.0725 1.2475 2.145 1.375 3.25 C1.75789544 6.79900754 1.75789544 6.79900754 3.03125 8.90625 C4.23016212 11.49744717 4.19974122 13.40983358 4.125 16.25 C4.10695312 17.14203125 4.08890625 18.0340625 4.0703125 18.953125 C4.03550781 19.96632812 4.03550781 19.96632812 4 21 C3.34 21 2.68 21 2 21 C2 20.01 2 19.02 2 18 C1.34 18 0.68 18 0 18 C0 12.06 0 6.12 0 0 Z " fill="#C5C4C4" transform="translate(169,235)"/>
<path d="M0 0 C0 0.66 0 1.32 0 2 C1.2375 1.608125 2.475 1.21625 3.75 0.8125 C7.65289982 -0.1909051 7.65289982 -0.1909051 10.5 1.375 C10.995 1.91125 11.49 2.4475 12 3 C10.68 3 9.36 3 8 3 C8 3.66 8 4.32 8 5 C5.69 5 3.38 5 1 5 C1 4.34 1 3.68 1 3 C-2.63 2.67 -6.26 2.34 -10 2 C-10 1.67 -10 1.34 -10 1 C-6.59437148 0.22157062 -3.49234244 -0.09978121 0 0 Z " fill="#DAD9D8" transform="translate(122,15)"/>
<path d="M0 0 C0.66 0 1.32 0 2 0 C2.33 1.98 2.66 3.96 3 6 C2.34 6 1.68 6 1 6 C0.7834375 7.670625 0.7834375 7.670625 0.5625 9.375 C0 13 0 13 -1 15 C-1.66 15 -2.32 15 -3 15 C-3 11.37 -3 7.74 -3 4 C-2.01 4.33 -1.02 4.66 0 5 C0 3.35 0 1.7 0 0 Z " fill="#E0DEDE" transform="translate(45,128)"/>
<path d="M0 0 C0.99 0.33 1.98 0.66 3 1 C2.34515625 1.63292969 1.6903125 2.26585938 1.015625 2.91796875 C-1.74659139 7.14159033 -1.45196781 10.39147653 -1.25 15.3125 C-1.23195312 16.14845703 -1.21390625 16.98441406 -1.1953125 17.84570312 C-1.14841126 19.89763228 -1.07667411 21.94896756 -1 24 C-1.66 24 -2.32 24 -3 24 C-4.87451157 17.8020182 -5.51720317 9.15940633 -2.5625 3.25 C-1 1 -1 1 0 0 Z " fill="#CBCAC9" transform="translate(36,66)"/>
<path d="M0 0 C0.66 0.33 1.32 0.66 2 1 C0.50260417 2.13932292 -0.99479167 3.27864583 -2.4921875 4.41796875 C-6.24097044 8.35127728 -6.33321631 13.10902413 -6.625 18.3125 C-6.73714844 20.19388672 -6.73714844 20.19388672 -6.8515625 22.11328125 C-6.90054688 23.06589844 -6.94953125 24.01851562 -7 25 C-7.33 25 -7.66 25 -8 25 C-8.33 20.71 -8.66 16.42 -9 12 C-9.99 11.67 -10.98 11.34 -12 11 C-8.19588166 7.08060535 -4.18423892 3.50897269 0 0 Z " fill="#403E3F" transform="translate(39,62)"/>
<path d="M0 0 C0.7425 0.2475 1.485 0.495 2.25 0.75 C0.85683123 3.53633754 -0.90980516 3.68492694 -3.75 4.75 C-5.13645369 5.93180682 -5.13645369 5.93180682 -5.1875 9.25 C-5.373125 10.405 -5.55875 11.56 -5.75 12.75 C-6.74 13.245 -6.74 13.245 -7.75 13.75 C-7.40682016 4.7586881 -7.40682016 4.7586881 -5 1.0625 C-2.75 -0.25 -2.75 -0.25 0 0 Z " fill="#B3B2B1" transform="translate(67.75,30.25)"/>
<path d="M0 0 C0 0.99 0 1.98 0 3 C-4.41225737 4.47075246 -7.48281619 5.36884358 -12 4 C-11.67 3.01 -11.34 2.02 -11 1 C-7.26562152 0.12132271 -3.83225427 -0.08912219 0 0 Z " fill="#C4C2C2" transform="translate(175,28)"/>
<path d="M0 0 C0.99 0.33 1.98 0.66 3 1 C3.33 1.99 3.66 2.98 4 4 C4.33 3.34 4.66 2.68 5 2 C7.31 2.66 9.62 3.32 12 4 C11.67 4.99 11.34 5.98 11 7 C9.35 6.67 7.7 6.34 6 6 C5.01 7.485 5.01 7.485 4 9 C2 8 2 8 1.3671875 6.15234375 C1.20476562 5.42144531 1.04234375 4.69054687 0.875 3.9375 C0.70742187 3.20402344 0.53984375 2.47054687 0.3671875 1.71484375 C0.24601562 1.14894531 0.12484375 0.58304688 0 0 Z " fill="#B3B2B1" transform="translate(126,158)"/>
<path d="M0 0 C6.38520354 0.15963009 9.66008365 3.78124883 14 8 C13.34 8.66 12.68 9.32 12 10 C11.55269531 9.61328125 11.10539063 9.2265625 10.64453125 8.828125 C7.1478974 5.81609925 3.62592537 2.85678969 0 0 Z " fill="#CAC9C8" transform="translate(150,177)"/>
<path d="M0 0 C-4.29833361 3.14512215 -7.82069003 4.75696561 -13 6 C-11.9280096 2.5458087 -10.90283569 1.94781917 -7.625 0.1875 C-3.0098832 -1.32434861 -3.0098832 -1.32434861 0 0 Z " fill="#D4D2D2" transform="translate(141,150)"/>
<path d="M0 0 C0.66 0.99 1.32 1.98 2 3 C1 5.5 1 5.5 0 8 C-0.18020651 10.69308621 -0.09165241 13.29625386 0 16 C-0.99 16.33 -1.98 16.66 -3 17 C-3.40214229 10.83381819 -1.96818336 5.82254243 0 0 Z " fill="#323030" transform="translate(61,126)"/>
<path d="M0 0 C0.33 0 0.66 0 1 0 C1.65486092 6.36150605 2.12068471 12.60371021 2 19 C1.34 19 0.68 19 0 19 C-0.8931507 12.41816638 -0.95494281 6.57849492 0 0 Z " fill="#C7C6C5" transform="translate(31,111)"/>
<path d="M0 0 C0.66 0 1.32 0 2 0 C1.39285714 5.46428571 1.39285714 5.46428571 -0.375 7.875 C-2 9 -2 9 -5 9 C-3.7580393 5.56072421 -2.44259716 2.74792181 0 0 Z " fill="#DEDCDC" transform="translate(58,14)"/>
<path d="M0 0 C0.99 0.495 0.99 0.495 2 1 C2 2.98 2 4.96 2 7 C2.66 7 3.32 7 4 7 C4 7.99 4 8.98 4 10 C4.66 10.33 5.32 10.66 6 11 C3.03 10.505 3.03 10.505 0 10 C0 6.7 0 3.4 0 0 Z " fill="#EDECEB" transform="translate(126,159)"/>
<path d="M0 0 C1.98 1.65 3.96 3.3 6 5 C6.66 4.67 7.32 4.34 8 4 C7.67 5.32 7.34 6.64 7 8 C4.62051228 7.82374165 3.29774151 7.30280227 1.62109375 5.59765625 C0.37884514 4.09350908 -0.81376056 2.54870149 -2 1 C-1.34 0.67 -0.68 0.34 0 0 Z " fill="#BAB8B8" transform="translate(48,133)"/>
<path d="M0 0 C5 2 5 2 10 4 C9.01 4.33 8.02 4.66 7 5 C6.67 5.99 6.34 6.98 6 8 C4.99403703 7.0479279 3.99538437 6.08812654 3 5.125 C2.443125 4.59132813 1.88625 4.05765625 1.3125 3.5078125 C0 2 0 2 0 0 Z " fill="#E0DEDE" transform="translate(172,44)"/>
<path d="M0 0 C0.99 0.33 1.98 0.66 3 1 C2.59007812 1.53109375 2.18015625 2.0621875 1.7578125 2.609375 C0.94957031 3.66898438 0.94957031 3.66898438 0.125 4.75 C-0.40867187 5.44609375 -0.94234375 6.1421875 -1.4921875 6.859375 C-2.89238914 8.84722603 -3.97855265 10.79843386 -5 13 C-5.602537 6.97463002 -5.602537 6.97463002 -3.88671875 4.19921875 C-2.65378147 2.74400545 -1.33191067 1.36520843 0 0 Z " fill="#D6D5D5" transform="translate(46,27)"/>
<path d="M0 0 C0.99 0.66 1.98 1.32 3 2 C2.34 2 1.68 2 1 2 C0.67 7.28 0.34 12.56 0 18 C-0.33 18 -0.66 18 -1 18 C-1.223293 15.93906592 -1.42802887 13.8761161 -1.625 11.8125 C-1.74101562 10.66394531 -1.85703125 9.51539062 -1.9765625 8.33203125 C-2.00023426 4.96669584 -1.47419799 2.98778294 0 0 Z " fill="#BCBBBA" transform="translate(156,99)"/>
<path d="M0 0 C2 2 2 2 2.125 5.625 C2.08375 6.73875 2.0425 7.8525 2 9 C0.68 8.67 -0.64 8.34 -2 8 C-2 7.34 -2 6.68 -2 6 C-2.99 5.67 -3.98 5.34 -5 5 C-4.01 4.67 -3.02 4.34 -2 4 C-1.34 4.33 -0.68 4.66 0 5 C0 3.35 0 1.7 0 0 Z " fill="#E3E2E1" transform="translate(161,94)"/>
<path d="M0 0 C0.99 0 1.98 0 3 0 C3.33 1.65 3.66 3.3 4 5 C2.35 5.33 0.7 5.66 -1 6 C-1.042721 4.33388095 -1.04063832 2.66617115 -1 1 C-0.67 0.67 -0.34 0.34 0 0 Z " fill="#BEBDBC" transform="translate(179,130)"/>
<path d="M0 0 C0.7425 0.0825 1.485 0.165 2.25 0.25 C2.25 1.24 2.25 2.23 2.25 3.25 C1.651875 3.37375 1.05375 3.4975 0.4375 3.625 C-2.01231348 4.20475985 -2.01231348 4.20475985 -4.75 6.25 C-5.41 5.59 -6.07 4.93 -6.75 4.25 C-3.42692308 0.31153846 -3.42692308 0.31153846 0 0 Z " fill="#B7B5B5" transform="translate(53.75,21.75)"/>
<path d="M0 0 C1.98 0.66 3.96 1.32 6 2 C5.01 2.495 5.01 2.495 4 3 C4 3.66 4 4.32 4 5 C4.66 5 5.32 5 6 5 C6 5.66 6 6.32 6 7 C4.35 7 2.7 7 1 7 C0.67 4.69 0.34 2.38 0 0 Z " fill="#D9D8D7" transform="translate(136,159)"/>
<path d="M0 0 C0.33 0 0.66 0 1 0 C1.12117188 0.67546875 1.24234375 1.3509375 1.3671875 2.046875 C1.53476562 2.93890625 1.70234375 3.8309375 1.875 4.75 C2.03742187 5.63171875 2.19984375 6.5134375 2.3671875 7.421875 C2.96796264 9.86947744 3.77997117 11.80599857 5 14 C2.70895944 13.08358378 1.24942899 12.30881685 -0.3125 10.375 C-1.36457706 6.74055199 -0.61928668 3.71572005 0 0 Z " fill="#B1B0B0" transform="translate(54,31)"/>
<path d="M0 0 C0.99 0 1.98 0 3 0 C2.67 1.65 2.34 3.3 2 5 C0.68 5.33 -0.64 5.66 -2 6 C-1.125 1.125 -1.125 1.125 0 0 Z " fill="#CFCECD" transform="translate(191,128)"/>
<path d="M0 0 C0.66 0 1.32 0 2 0 C3.49821059 3.37097383 4 5.20442119 4 9 C1.525 8.01 1.525 8.01 -1 7 C-0.67 4.69 -0.34 2.38 0 0 Z M1 3 C2 5 2 5 2 5 Z " fill="#C6C5C4" transform="translate(123,103)"/>
<path d="M0 0 C1.5 1.1875 1.5 1.1875 3 3 C3.1875 5.6875 3.1875 5.6875 3 8 C-0.65316671 6.75023244 -1.78065836 6.32901247 -4 3 C-1.525 3.99 -1.525 3.99 1 5 C0.67 3.35 0.34 1.7 0 0 Z " fill="#D7D6D5" transform="translate(110,102)"/>
<path d="M0 0 C0.66 0.33 1.32 0.66 2 1 C2 3.31 2 5.62 2 8 C0.68 8 -0.64 8 -2 8 C-2.66 7.01 -3.32 6.02 -4 5 C-2.68 5.33 -1.36 5.66 0 6 C0 4.02 0 2.04 0 0 Z " fill="#D2D1D1" transform="translate(168,89)"/>
<path d="M0 0 C0.33 0 0.66 0 1 0 C1 3.63 1 7.26 1 11 C-0.65 11.66 -2.3 12.32 -4 13 C-4 12.34 -4 11.68 -4 11 C-3.34 11 -2.68 11 -2 11 C-2 10.01 -2 9.02 -2 8 C-1.34 8 -0.68 8 0 8 C0 5.36 0 2.72 0 0 Z " fill="#CFCECD" transform="translate(52,208)"/>
<path d="M0 0 C-3.82517513 2.39073445 -7.59665524 2.55966552 -12 3 C-12 2.34 -12 1.68 -12 1 C-7.53763531 -0.80619523 -4.68965706 -1.11658501 0 0 Z " fill="#AAA9A8" transform="translate(129,135)"/>
<path d="M0 0 C0.33 1.32 0.66 2.64 1 4 C1.66 4 2.32 4 3 4 C2.67 6.31 2.34 8.62 2 11 C1.34 11 0.68 11 0 11 C0 7.37 0 3.74 0 0 Z " fill="#EFEEED" transform="translate(42,132)"/>
<path d="M0 0 C0.66 0 1.32 0 2 0 C1.67 2.64 1.34 5.28 1 8 C-0.32 8 -1.64 8 -3 8 C-1.125 1.125 -1.125 1.125 0 0 Z " fill="#DEDDDC" transform="translate(40,116)"/>
<path d="M0 0 C0.33 0 0.66 0 1 0 C1.185625 1.2065625 1.185625 1.2065625 1.375 2.4375 C1.58125 3.283125 1.7875 4.12875 2 5 C2.66 5.33 3.32 5.66 4 6 C2.71034824 7.37562854 1.37310707 8.70766393 0 10 C-0.66 10 -1.32 10 -2 10 C-1.34 6.7 -0.68 3.4 0 0 Z " fill="#D3D2D1" transform="translate(74,154)"/>
<path d="M0 0 C-0.33 0.99 -0.66 1.98 -1 3 C-3.97 3 -6.94 3 -10 3 C-10.33 2.34 -10.66 1.68 -11 1 C-9.54182203 0.83197949 -8.0834516 0.66562857 -6.625 0.5 C-5.81289062 0.4071875 -5.00078125 0.314375 -4.1640625 0.21875 C-2 0 -2 0 0 0 Z " fill="#EBEAEA" transform="translate(84,149)"/>
<path d="M0 0 C0 0.33 0 0.66 0 1 C-1.95565258 1.38873828 -3.91466504 1.76060833 -5.875 2.125 C-6.96554688 2.33382812 -8.05609375 2.54265625 -9.1796875 2.7578125 C-10.57574219 2.87769531 -10.57574219 2.87769531 -12 3 C-12.66 2.34 -13.32 1.68 -14 1 C-9.22426677 -1.61895048 -5.15565119 -0.83119431 0 0 Z " fill="#B1AFAF" transform="translate(51,49)"/>
<path d="M0 0 C0.66 0 1.32 0 2 0 C2 0.66 2 1.32 2 2 C2.66 2 3.32 2 4 2 C4 2.66 4 3.32 4 4 C2.02 4.66 0.04 5.32 -2 6 C-1.49396008 3.83125748 -1.00016187 2.00032373 0 0 Z " fill="#C6C5C5" transform="translate(76,167)"/>
<path d="M0 0 C1.0326802 2.78823655 1.04509293 3.8677274 0.0625 6.75 C-0.288125 7.4925 -0.63875 8.235 -1 9 C-1.99 8.67 -2.98 8.34 -4 8 C-4 7.01 -4 6.02 -4 5 C-3.34 5 -2.68 5 -2 5 C-1.34 3.35 -0.68 1.7 0 0 Z " fill="#C2C1C0" transform="translate(91,157)"/>
<path d="M0 0 C1.32 0 2.64 0 4 0 C3.67 1.32 3.34 2.64 3 4 C1.68 4.33 0.36 4.66 -1 5 C-0.67 3.35 -0.34 1.7 0 0 Z " fill="#DCDBDA" transform="translate(203,125)"/>
<path d="M0 0 C0.33 0.99 0.66 1.98 1 3 C1.66 3 2.32 3 3 3 C2.34 4.65 1.68 6.3 1 8 C0.34 8 -0.32 8 -1 8 C-1.04241723 5.66705225 -1.04092937 3.33297433 -1 1 C-0.67 0.67 -0.34 0.34 0 0 Z " fill="#E2E1E0" transform="translate(28,65)"/>
<path d="M0 0 C0.33 0.99 0.66 1.98 1 3 C-0.98 4.32 -2.96 5.64 -5 7 C-5 6.34 -5 5.68 -5 5 C-5.66 4.67 -6.32 4.34 -7 4 C-4.69 2.68 -2.38 1.36 0 0 Z " fill="#D1D0CF" transform="translate(49,54)"/>
<path d="M0 0 C3.29696105 1.09898702 4.04670589 1.94597387 6.1875 4.5625 C6.71730469 5.20316406 7.24710937 5.84382812 7.79296875 6.50390625 C8.19128906 6.99761719 8.58960937 7.49132812 9 8 C8.67 8.66 8.34 9.32 8 10 C6.66070495 8.71451591 5.32871357 7.42141845 4 6.125 C2.88625 5.04605469 2.88625 5.04605469 1.75 3.9453125 C0 2 0 2 0 0 Z " fill="#A7A6A5" transform="translate(74,126)"/>
<path d="M0 0 C4.24223102 -0.3636198 6.58168085 0.4606772 10 3 C10 3.66 10 4.32 10 5 C5.59885603 4.49701212 3.28804981 2.91227269 0 0 Z " fill="#D1D0CF" transform="translate(188,91)"/>
<path d="M0 0 C1.98 0.66 3.96 1.32 6 2 C4.68 2.33 3.36 2.66 2 3 C2 3.66 2 4.32 2 5 C-0.97 4.505 -0.97 4.505 -4 4 C-3.01 3.67 -2.02 3.34 -1 3 C-0.67 2.01 -0.34 1.02 0 0 Z " fill="#E1E0E0" transform="translate(128,15)"/>
<path d="M0 0 C-0.99 1.485 -0.99 1.485 -2 3 C-5.3 2.67 -8.6 2.34 -12 2 C-12 1.67 -12 1.34 -12 1 C-10.37681021 0.63762737 -8.7513642 0.28534843 -7.125 -0.0625 C-6.22007813 -0.25972656 -5.31515625 -0.45695313 -4.3828125 -0.66015625 C-2 -1 -2 -1 0 0 Z " fill="#B9B8B7" transform="translate(129,154)"/>
<path d="M0 0 C1.98 0.99 1.98 0.99 4 2 C4.875 5 4.875 5 5 8 C4.34 8.66 3.68 9.32 3 10 C2.01 6.7 1.02 3.4 0 0 Z " fill="#BBBABA" transform="translate(155,123)"/>
<path d="M0 0 C2.64 0.33 5.28 0.66 8 1 C7.01 1.33 6.02 1.66 5 2 C4.67 2.99 4.34 3.98 4 5 C2 3.625 2 3.625 0 2 C0 1.34 0 0.68 0 0 Z " fill="#E0DFDE" transform="translate(160,31)"/>
<path d="M0 0 C0.66 0.33 1.32 0.66 2 1 C-0.25 3.5625 -0.25 3.5625 -3 6 C-5.3125 5.8125 -5.3125 5.8125 -7 5 C-4.702779 3.25728062 -2.40133271 1.60088848 0 0 Z " fill="#333232" transform="translate(130,11)"/>
<path d="M0 0 C0.33 0 0.66 0 1 0 C1 1.98 1 3.96 1 6 C-0.32 5.67 -1.64 5.34 -3 5 C-3 4.01 -3 3.02 -3 2 C-2.34 2.33 -1.68 2.66 -1 3 C-0.67 2.01 -0.34 1.02 0 0 Z " fill="#D0CFCE" transform="translate(98,103)"/>
<path d="M0 0 C2.31 0.33 4.62 0.66 7 1 C7.33 1.99 7.66 2.98 8 4 C4.64404172 3.40072174 2.62198774 2.15377564 0 0 Z " fill="#C9C8C7" transform="translate(70,132)"/>
<path d="M0 0 C0.66 0 1.32 0 2 0 C1.60196439 2.88575819 1.20990931 3.82189513 -1.0625 5.75 C-1.701875 6.1625 -2.34125 6.575 -3 7 C-3.66 6.67 -4.32 6.34 -5 6 C-3.38405168 3.95880212 -1.7143618 1.95927063 0 0 Z " fill="#363434" transform="translate(38,125)"/>
<path d="M0 0 C3.96 0 7.92 0 12 0 C11.67 0.99 11.34 1.98 11 3 C10.34 3 9.68 3 9 3 C9 2.34 9 1.68 9 1 C6.03 1 3.06 1 0 1 C0 0.67 0 0.34 0 0 Z " fill="#EEEDEC" transform="translate(192,45)"/>
</svg>
